<?xml version="1.0" encoding="utf-8"?>
<!-- Generator: Adobe Illustrator 25.4.1, SVG Export Plug-In . SVG Version: 6.00 Build 0)  -->
<svg version="1.1" id="Layer_1" xmlns="http://www.w3.org/2000/svg" xmlns:xlink="http://www.w3.org/1999/xlink" x="0px" y="0px"
	 viewBox="0 0 90.84 70.53" style="enable-background:new 0 0 90.84 70.53;" xml:space="preserve">
<style type="text/css">
	.st0{fill-rule:evenodd;clip-rule:evenodd;fill:#1885C8;}
	.st1{fill-rule:evenodd;clip-rule:evenodd;stroke:#000000;stroke-width:0.216;stroke-miterlimit:22.9256;}
</style>
<g>
	<g>
		<path class="st0" d="M33.16,29.71L43.55,45.3c-3.22,1.19-7.41,2.01-10.51,2.46c2.39,0.22,7.23-0.36,11.23-1.38l1.55,2.33
			l1.92-0.04l-0.21-3.32c12.86-5.56,10.74-20.39-1.43-22.74L45.27,9.3l-0.71,13.34c-6.87,0.26-15.86,0.66-19.2,0.84
			c-3.15,0.16,14.76,1.78,19.04,2.15l-0.84,15.58l-7.12-11.82L33.16,29.71L33.16,29.71z M41.6,3.55h1.83V1.63l1.92,1.83h0.04
			l1.92-1.83v1.92h1.83l-1.66,1.83v0.13l1.66,1.83h-1.83v1.92l-1.92-1.75h-0.04l-1.92,1.75V7.34H41.6l1.7-1.83V5.38L41.6,3.55
			L41.6,3.55z M47.42,43.59l-1.12-17.8c3.77,0.49,5.93,3.02,7.25,6.61C54.56,37.51,52.15,41.08,47.42,43.59z"/>
		<path class="st0" d="M3.63,60.84L0,51.87h1.71l2.34,5.98l2.22-5.98h0.85L3.63,60.84L3.63,60.84z M7.93,55.92
			C7.92,55.51,8,55.24,8.15,55.1c0.16-0.13,0.44-0.2,0.85-0.2l2.74-0.01v0.5H9.88c-0.19,0.01-0.35,0.04-0.48,0.08
			c-0.13,0.04-0.19,0.17-0.19,0.39v1.44h2.08v0.56H9.21v1.83c0,0.22,0.06,0.36,0.19,0.4c0.13,0.04,0.29,0.07,0.48,0.07l1.94-0.01
			v0.5H9.01c-0.41,0-0.7-0.06-0.85-0.19C8,60.32,7.92,60.04,7.93,59.62V55.92L7.93,55.92z M13.17,55.92
			c-0.01-0.41,0.06-0.69,0.22-0.82c0.16-0.13,0.44-0.2,0.85-0.2l2.74-0.01v0.5h-1.87c-0.19,0.01-0.35,0.04-0.48,0.08
			c-0.13,0.04-0.19,0.17-0.19,0.39v1.44h2.08v0.56h-2.08v1.83c0,0.22,0.06,0.36,0.19,0.4c0.13,0.04,0.29,0.07,0.48,0.07l1.94-0.01
			v0.5h-2.81c-0.41,0-0.7-0.06-0.85-0.19c-0.16-0.13-0.23-0.41-0.22-0.83V55.92L13.17,55.92z M18.97,60.64h-0.55v-4.77
			c0-0.3,0.06-0.57,0.17-0.8c0.11-0.23,0.35-0.34,0.71-0.33c0.25,0,0.47,0.08,0.65,0.25c0.18,0.17,0.33,0.35,0.45,0.54
			c0.02,0.03,0.03,0.05,0.05,0.08c0.01,0.03,0.03,0.05,0.05,0.08l1.51,2.66c0.01,0.02,0.02,0.03,0.02,0.04
			c0,0.01,0.01,0.01,0.01,0.01c0.03,0.03,0.05,0.03,0.07,0c0.02-0.03,0.04-0.06,0.06-0.09c0-0.01,0-0.02,0.01-0.03
			c0-0.01,0.01-0.02,0.01-0.03v-3.36h0.56v5.27c0,0.3-0.06,0.49-0.17,0.58c-0.11,0.09-0.23,0.12-0.36,0.07
			c-0.08-0.02-0.15-0.06-0.22-0.11c-0.07-0.06-0.13-0.13-0.18-0.21l-2.65-4.56c-0.01-0.01-0.02-0.02-0.03-0.03
			c-0.01-0.01-0.02-0.02-0.03-0.03c-0.04-0.02-0.07-0.01-0.09,0.01c-0.03,0.03-0.04,0.07-0.04,0.13V60.64L18.97,60.64z M25.1,58.37
			h1.87l-0.69-2.45c-0.04-0.1-0.07-0.17-0.11-0.23c-0.04-0.05-0.08-0.08-0.13-0.08c-0.04,0-0.09,0.03-0.13,0.09
			c-0.04,0.06-0.09,0.14-0.12,0.25L25.1,58.37L25.1,58.37z M24.96,58.87l-0.51,1.77h-0.56l1.41-5.04c0.09-0.31,0.24-0.54,0.44-0.68
			c0.2-0.14,0.41-0.2,0.64-0.19c0.22,0.02,0.44,0.11,0.64,0.28c0.2,0.17,0.35,0.4,0.44,0.69l1.48,4.95h-1.3l-0.52-1.77H24.96
			L24.96,58.87z M34.22,60.64v-8.78h2.15c1.58,0.01,2.92,0.43,4.02,1.25c1.1,0.82,1.57,2.1,1.41,3.82c-0.1,1.16-0.55,2.06-1.35,2.72
			c-0.8,0.66-1.77,0.99-2.91,0.99H34.22L34.22,60.64z M35.84,52.52v7.46c0.07,0.01,0.15,0.01,0.23,0.01c0.08,0,0.16,0,0.24,0
			c0.1,0.01,0.2,0.01,0.3,0.01c0.1,0,0.21,0,0.32,0c0.3-0.01,0.61-0.04,0.91-0.09c0.3-0.05,0.58-0.15,0.84-0.3
			c0.4-0.24,0.71-0.58,0.91-1c0.21-0.43,0.35-0.87,0.42-1.32c0.03-0.18,0.05-0.35,0.06-0.52c0.01-0.17,0.02-0.34,0.02-0.5
			c0-0.68-0.13-1.33-0.38-1.94c-0.26-0.61-0.7-1.09-1.34-1.42c-0.34-0.17-0.69-0.28-1.06-0.32c-0.36-0.04-0.73-0.06-1.11-0.06
			c-0.04,0-0.07,0-0.11,0c-0.04,0-0.07,0-0.11,0c-0.03,0-0.05,0-0.07,0c-0.02,0-0.05,0-0.07,0V52.52L35.84,52.52z M43.22,55.92
			c-0.01-0.41,0.06-0.69,0.22-0.82c0.16-0.13,0.44-0.2,0.85-0.2l2.74-0.01v0.5h-1.87c-0.19,0.01-0.35,0.04-0.48,0.08
			c-0.13,0.04-0.19,0.17-0.19,0.39v1.44h2.08v0.56h-2.08v1.83c0,0.22,0.06,0.36,0.19,0.4c0.13,0.04,0.29,0.07,0.48,0.07l1.94-0.01
			v0.5h-2.81c-0.41,0-0.7-0.06-0.85-0.19c-0.16-0.13-0.23-0.41-0.22-0.83V55.92L43.22,55.92z M52.44,54.89h0.52l-1.37,4.64
			c-0.01,0.04-0.02,0.09-0.03,0.13c-0.01,0.04-0.03,0.08-0.05,0.13c-0.08,0.26-0.2,0.5-0.36,0.71c-0.16,0.22-0.4,0.32-0.71,0.32
			c-0.32,0-0.56-0.11-0.73-0.33c-0.16-0.22-0.29-0.46-0.38-0.73c-0.01-0.03-0.02-0.06-0.03-0.09c-0.01-0.03-0.02-0.06-0.03-0.1
			l-1.37-4.68h1.3l1.47,5.01c0.01,0.04,0.03,0.08,0.05,0.1c0.03,0.02,0.06,0.03,0.09,0.03c0.03,0.01,0.06,0,0.09-0.02
			c0.03-0.02,0.05-0.06,0.06-0.1L52.44,54.89L52.44,54.89z M54.06,55.92c-0.01-0.41,0.06-0.69,0.22-0.82
			c0.16-0.13,0.44-0.2,0.85-0.2l2.74-0.01v0.5h-1.87c-0.19,0.01-0.35,0.04-0.48,0.08c-0.13,0.04-0.19,0.17-0.19,0.39v1.44h2.08v0.56
			h-2.08v1.83c0,0.22,0.06,0.36,0.19,0.4c0.13,0.04,0.29,0.07,0.48,0.07l1.94-0.01v0.5h-2.81c-0.41,0-0.7-0.06-0.85-0.19
			c-0.16-0.13-0.23-0.41-0.22-0.83V55.92L54.06,55.92z M59.31,51.25h1.28v8.44c0,0.23,0.07,0.37,0.22,0.42
			c0.15,0.04,0.31,0.07,0.49,0.07c0.02-0.01,0.04-0.01,0.05-0.01c0.02,0,0.04,0,0.05,0c0.03,0,0.06,0,0.09,0c0.03,0,0.06,0,0.09,0
			v0.48c-0.05,0-0.11,0-0.18,0.01c-0.07,0-0.14,0.01-0.22,0.01c-0.09,0-0.18,0-0.28,0.01c-0.1,0-0.2,0.01-0.31,0.01
			c-0.19,0-0.37-0.01-0.56-0.03c-0.18-0.02-0.33-0.06-0.44-0.12c-0.1-0.06-0.17-0.15-0.21-0.26c-0.04-0.11-0.06-0.22-0.07-0.34
			c0-0.04,0-0.09,0-0.13c0-0.04,0-0.09,0-0.13c0-0.01,0-0.02,0-0.02c0,0,0-0.01,0-0.02V51.25L59.31,51.25z M64.94,60.82
			c-0.93-0.04-1.64-0.38-2.11-0.99c-0.47-0.62-0.73-1.3-0.75-2.04c-0.03-0.79,0.2-1.51,0.68-2.16c0.48-0.65,1.21-0.95,2.18-0.89
			c0.92,0.05,1.62,0.39,2.1,1.01c0.48,0.62,0.74,1.3,0.77,2.04c0.04,0.79-0.19,1.51-0.67,2.15C66.67,60.58,65.93,60.87,64.94,60.82
			L64.94,60.82z M64.94,60.4c0.55,0.01,0.94-0.26,1.19-0.8c0.25-0.54,0.37-1.14,0.36-1.78c0-0.52-0.08-1.01-0.23-1.47
			c-0.15-0.46-0.37-0.79-0.65-0.97c-0.1-0.07-0.21-0.13-0.32-0.16c-0.12-0.04-0.23-0.05-0.35-0.05c-0.09,0-0.18,0.01-0.26,0.03
			c-0.08,0.02-0.17,0.05-0.25,0.09c-0.23,0.12-0.42,0.29-0.56,0.52c-0.14,0.23-0.24,0.48-0.32,0.74c-0.02,0.07-0.04,0.15-0.05,0.22
			c-0.02,0.08-0.03,0.15-0.04,0.22c-0.04,0.19-0.06,0.41-0.06,0.67c0,0.26,0.01,0.53,0.05,0.81c0.06,0.48,0.21,0.93,0.44,1.34
			c0.23,0.41,0.58,0.61,1.06,0.61V60.4L64.94,60.4z M70.42,60.64v2.33h-1.28v-8.08h2c0.99,0.01,1.81,0.33,2.44,0.95
			c0.63,0.63,0.88,1.45,0.73,2.46c-0.09,0.63-0.37,1.16-0.83,1.61c-0.46,0.44-1.01,0.69-1.65,0.75c-0.24,0.03-0.48,0.04-0.72,0.03
			C70.89,60.67,70.66,60.66,70.42,60.64L70.42,60.64z M70.42,60.15c0.88,0.12,1.54,0.02,2-0.28c0.45-0.3,0.66-0.95,0.62-1.94
			c0-0.11-0.01-0.22-0.02-0.34c-0.01-0.12-0.03-0.24-0.05-0.36c-0.04-0.32-0.14-0.63-0.28-0.92c-0.14-0.29-0.35-0.52-0.63-0.69
			c-0.16-0.1-0.34-0.16-0.52-0.18c-0.19-0.02-0.38-0.04-0.56-0.05c-0.05,0-0.1,0-0.15,0.01c-0.04,0-0.09,0.01-0.15,0.01
			c-0.04,0-0.09,0-0.13,0c-0.04,0-0.09,0-0.13,0V60.15L70.42,60.15z M75.67,55.92c-0.01-0.41,0.06-0.69,0.22-0.82
			c0.16-0.13,0.44-0.2,0.85-0.2l2.74-0.01v0.5h-1.87c-0.19,0.01-0.35,0.04-0.48,0.08c-0.13,0.04-0.19,0.17-0.19,0.39v1.44h2.08v0.56
			h-2.08v1.83c0,0.22,0.06,0.36,0.19,0.4c0.13,0.04,0.29,0.07,0.48,0.07l1.94-0.01v0.5h-2.81c-0.41,0-0.7-0.06-0.85-0.19
			c-0.16-0.13-0.23-0.41-0.22-0.83V55.92L75.67,55.92z M82.19,60.64h-1.28v-5.75h2.31c0.07,0.01,0.15,0.02,0.23,0.02
			c0.08,0,0.16,0.01,0.23,0.01c0.28,0.03,0.55,0.09,0.81,0.18c0.26,0.09,0.47,0.26,0.65,0.49c0.09,0.13,0.16,0.28,0.21,0.44
			c0.05,0.16,0.07,0.32,0.07,0.48c0,0.03,0,0.05-0.01,0.08c0,0.03-0.01,0.05-0.01,0.08c-0.04,0.36-0.17,0.63-0.4,0.82
			c-0.23,0.19-0.51,0.31-0.85,0.36l1.49,2.8h-1.53l-1.37-2.88c0.33-0.02,0.63-0.08,0.89-0.19c0.26-0.11,0.41-0.37,0.44-0.79
			c0.07-0.7-0.08-1.11-0.46-1.22c-0.38-0.12-0.81-0.18-1.29-0.19c-0.03,0-0.05,0-0.07,0c-0.02,0-0.04,0-0.06,0V60.64L82.19,60.64z
			 M86.78,60.54v-0.44c0.03,0.02,0.06,0.03,0.09,0.03c0.04,0,0.07,0.01,0.09,0.02c0.12,0.02,0.24,0.04,0.36,0.05
			c0.13,0.02,0.25,0.03,0.38,0.04c0.22,0.02,0.43,0.02,0.64-0.01c0.21-0.02,0.41-0.09,0.58-0.19c0.12-0.07,0.2-0.17,0.26-0.28
			c0.06-0.12,0.09-0.24,0.09-0.38c0-0.01,0-0.02,0-0.03c0-0.01,0-0.02,0-0.03c-0.02-0.27-0.11-0.47-0.28-0.61
			c-0.17-0.14-0.36-0.27-0.58-0.38c-0.02-0.01-0.04-0.02-0.06-0.03c-0.02-0.01-0.05-0.02-0.07-0.03c-0.03-0.02-0.05-0.03-0.07-0.04
			c-0.02-0.01-0.05-0.02-0.07-0.04c-0.04-0.03-0.09-0.05-0.14-0.07c-0.05-0.02-0.1-0.05-0.15-0.07c-0.18-0.1-0.36-0.21-0.53-0.33
			c-0.17-0.12-0.32-0.27-0.42-0.44c-0.08-0.13-0.14-0.26-0.18-0.4c-0.04-0.14-0.06-0.28-0.06-0.42c0-0.12,0.01-0.23,0.03-0.34
			c0.02-0.11,0.06-0.22,0.11-0.32c0.2-0.41,0.49-0.68,0.87-0.81c0.39-0.13,0.79-0.19,1.22-0.18c0.2,0,0.39,0.01,0.58,0.03
			c0.19,0.02,0.38,0.04,0.56,0.07v0.47c-0.05,0-0.11,0-0.17-0.01c-0.06-0.01-0.13-0.02-0.19-0.03c-0.08-0.01-0.16-0.02-0.24-0.03
			c-0.08-0.01-0.16-0.02-0.24-0.03c-0.2-0.02-0.39-0.02-0.57,0.01c-0.18,0.02-0.35,0.08-0.5,0.18c-0.1,0.07-0.18,0.16-0.24,0.28
			c-0.06,0.11-0.08,0.23-0.07,0.36c0,0.01,0,0.02,0.01,0.03c0,0.01,0.01,0.03,0.01,0.05c0.04,0.19,0.12,0.34,0.26,0.45
			c0.14,0.11,0.29,0.21,0.45,0.3c0.04,0.02,0.07,0.04,0.11,0.06c0.04,0.02,0.07,0.04,0.11,0.06c0.01,0.01,0.02,0.02,0.04,0.03
			c0.02,0.01,0.04,0.02,0.05,0.03c0.02,0.01,0.04,0.02,0.05,0.03c0.02,0.01,0.04,0.02,0.07,0.03c0.05,0.04,0.11,0.07,0.17,0.1
			c0.06,0.03,0.13,0.07,0.19,0.1c0.25,0.14,0.49,0.3,0.71,0.48c0.22,0.18,0.37,0.41,0.44,0.7c0.01,0.04,0.02,0.09,0.03,0.14
			c0.01,0.05,0.02,0.1,0.03,0.15c0.02,0.24-0.02,0.48-0.1,0.71c-0.08,0.23-0.22,0.43-0.41,0.6c-0.24,0.22-0.53,0.37-0.86,0.44
			c-0.33,0.07-0.67,0.11-1.02,0.11c-0.24-0.01-0.48-0.03-0.71-0.05c-0.23-0.03-0.45-0.06-0.65-0.09V60.54z"/>
		<g>
			<path class="st1" d="M10.66,67.46c-0.45,0.47-0.87,0.81-1.25,1.03c-0.38,0.22-0.7,0.33-0.96,0.33c-0.09,0-0.16-0.05-0.21-0.16
				c-0.05-0.11-0.07-0.27-0.07-0.48c0-0.14,0.03-0.35,0.09-0.64c0.06-0.29,0.14-0.65,0.25-1.09c0.09-0.35,0.16-0.65,0.23-0.91
				c0.07-0.25,0.1-0.46,0.1-0.63c0-0.11-0.02-0.18-0.06-0.21c-0.04-0.03-0.11-0.04-0.22-0.04c-0.18,0-0.38,0.03-0.58,0.09
				c-0.2,0.06-0.42,0.14-0.64,0.25c-0.11,0.06-0.21,0.11-0.29,0.17c-0.09,0.06-0.16,0.12-0.22,0.18c-0.08,0.08-0.15,0.15-0.19,0.23
				c-0.04,0.08-0.06,0.15-0.06,0.22c0,0.08,0.01,0.19,0.04,0.33c0.03,0.14,0.08,0.31,0.14,0.5l0.16,0.47
				c0.01,0.04,0.02,0.08,0.03,0.11c0.01,0.03,0.01,0.05,0.01,0.07c0,0.02-0.01,0.04-0.02,0.05c-0.01,0.01-0.03,0.02-0.05,0.02
				c-0.12,0-0.21-0.03-0.26-0.09c-0.06-0.06-0.1-0.13-0.14-0.23l-0.17-0.51c-0.04-0.12-0.08-0.23-0.1-0.33
				C6.2,66.09,6.19,66,6.19,65.9c0-0.13,0.06-0.27,0.18-0.4c0.12-0.14,0.3-0.27,0.55-0.41c0.03-0.02,0.07-0.04,0.1-0.05
				c0.03-0.02,0.06-0.04,0.09-0.05c0.3-0.15,0.59-0.27,0.86-0.34c0.28-0.07,0.51-0.11,0.69-0.11c0.2,0,0.35,0.04,0.45,0.13
				c0.1,0.09,0.15,0.21,0.15,0.38c0,0.06-0.01,0.13-0.03,0.24c-0.02,0.1-0.05,0.23-0.09,0.38L8.8,67.06
				c-0.08,0.32-0.14,0.59-0.19,0.79c-0.05,0.21-0.07,0.36-0.07,0.48c0,0.1,0.01,0.19,0.04,0.25c0.03,0.06,0.05,0.1,0.08,0.1
				c0.02,0,0.1-0.02,0.25-0.07c0.15-0.05,0.32-0.13,0.51-0.25c0.26-0.17,0.49-0.36,0.7-0.57c0.21-0.21,0.38-0.43,0.5-0.65
				c0.03-0.06,0.06-0.11,0.08-0.16c0.03-0.05,0.05-0.11,0.07-0.16c0.03-0.07,0.05-0.14,0.07-0.21c0.02-0.07,0.04-0.15,0.06-0.22
				c0.03-0.14,0.07-0.29,0.11-0.43c0.04-0.15,0.1-0.3,0.18-0.45c0.01-0.02,0.02-0.04,0.04-0.06c0.01-0.02,0.02-0.04,0.04-0.06
				c0.02-0.03,0.03-0.05,0.05-0.07c0.01-0.02,0.03-0.04,0.05-0.06c0.09-0.12,0.17-0.21,0.25-0.27c0.08-0.06,0.14-0.09,0.18-0.09
				c0.01,0,0.02,0,0.02,0.01c0.01,0.01,0.01,0.02,0.01,0.04c0,0.03-0.02,0.07-0.06,0.14c-0.04,0.07-0.09,0.17-0.15,0.3
				c-0.04,0.09-0.08,0.2-0.11,0.31c-0.04,0.11-0.07,0.23-0.1,0.35c-0.03,0.08-0.05,0.17-0.07,0.26c-0.02,0.09-0.04,0.19-0.07,0.28
				l-0.26,1.04c-0.01,0.03-0.02,0.06-0.02,0.09c-0.01,0.03-0.01,0.06-0.02,0.09c-0.09,0.39-0.2,0.75-0.33,1.09
				c-0.13,0.34-0.33,0.65-0.61,0.93c-0.27,0.27-0.58,0.46-0.92,0.55c-0.34,0.1-0.75,0.14-1.21,0.14c-0.18,0-0.31-0.01-0.4-0.03
				s-0.13-0.05-0.13-0.1c0,0,0-0.01,0.01-0.02c0.01-0.01,0.02-0.02,0.03-0.03l0.26-0.27c0.09,0.03,0.19,0.06,0.29,0.06
				c0.1,0.01,0.21,0.01,0.32,0.01c0.56,0,1-0.07,1.32-0.2c0.32-0.13,0.53-0.34,0.62-0.62c0.04-0.13,0.08-0.26,0.11-0.4
				c0.03-0.14,0.07-0.28,0.1-0.42c0.03-0.17,0.07-0.34,0.11-0.51C10.57,67.83,10.61,67.65,10.66,67.46L10.66,67.46L10.66,67.46z
				 M12.27,68.83c0.18,0,0.35-0.03,0.5-0.1c0.15-0.06,0.29-0.16,0.42-0.29c0.07-0.07,0.14-0.15,0.19-0.23
				c0.06-0.08,0.1-0.16,0.13-0.24c0.03-0.07,0.05-0.14,0.07-0.21c0.01-0.07,0.02-0.13,0.02-0.2c0-0.19-0.07-0.34-0.2-0.46
				c-0.13-0.12-0.32-0.18-0.56-0.18c-0.16,0-0.31,0.02-0.45,0.07c-0.14,0.05-0.28,0.12-0.4,0.21c-0.09,0.07-0.18,0.15-0.25,0.23
				c-0.07,0.09-0.14,0.18-0.18,0.26c-0.04,0.08-0.08,0.16-0.1,0.25c-0.03,0.08-0.04,0.16-0.04,0.23c0,0.2,0.07,0.36,0.22,0.48
				C11.8,68.77,12.01,68.83,12.27,68.83L12.27,68.83z M13.02,68.49c0.05-0.07,0.09-0.14,0.12-0.21c0.03-0.07,0.06-0.14,0.08-0.21
				c0.01-0.05,0.02-0.09,0.03-0.14c0.01-0.05,0.01-0.1,0.01-0.14c0-0.21-0.06-0.38-0.17-0.51c-0.11-0.13-0.26-0.19-0.43-0.19
				c-0.22,0-0.41,0.1-0.59,0.3c-0.17,0.2-0.26,0.42-0.26,0.67c0,0.17,0.04,0.28,0.13,0.35c0.09,0.07,0.23,0.1,0.41,0.1L13.02,68.49
				L13.02,68.49z M15.2,68.24c-0.13,0.15-0.25,0.28-0.36,0.37c-0.11,0.09-0.21,0.15-0.32,0.17c-0.02,0-0.03,0.01-0.05,0.01
				c-0.02,0-0.03,0-0.05,0c-0.14,0-0.26-0.05-0.35-0.16c-0.1-0.11-0.14-0.25-0.14-0.42c0-0.1,0.02-0.19,0.05-0.29
				c0.03-0.09,0.07-0.18,0.11-0.27c0.01-0.02,0.02-0.04,0.03-0.06c0.01-0.02,0.02-0.04,0.03-0.06c0.03-0.07,0.05-0.14,0.07-0.2
				c0.02-0.07,0.03-0.14,0.03-0.2c0-0.05-0.01-0.1-0.02-0.14c-0.01-0.04-0.02-0.08-0.04-0.11c-0.02-0.03-0.03-0.06-0.04-0.08
				c-0.01-0.02-0.02-0.04-0.02-0.05c0-0.01,0-0.02,0.01-0.02c0.01-0.01,0.02-0.01,0.04-0.01c0.02,0,0.04,0.01,0.06,0.04
				c0.03,0.02,0.05,0.05,0.08,0.09c0.04,0.06,0.07,0.12,0.11,0.2c0.03,0.08,0.05,0.16,0.06,0.24c0,0.01,0,0.02,0,0.02s0,0.01,0,0.02
				c0,0.02,0,0.04,0,0.05c0,0.02,0,0.04,0,0.05c-0.01,0.06-0.02,0.12-0.04,0.18c-0.02,0.06-0.04,0.12-0.06,0.19
				c-0.03,0.08-0.05,0.15-0.07,0.23c-0.02,0.07-0.03,0.15-0.03,0.21c0,0.08,0.02,0.15,0.05,0.19c0.04,0.04,0.11,0.06,0.21,0.06
				c0.26,0,0.48-0.13,0.67-0.4c0.19-0.27,0.28-0.64,0.28-1.12l0.26-0.01c0,0.07,0.01,0.13,0.01,0.18c0,0.05,0,0.1,0,0.14
				c0,0.2-0.02,0.38-0.06,0.54c-0.04,0.16-0.09,0.32-0.16,0.47c-0.01,0.03-0.03,0.06-0.04,0.1c-0.01,0.03-0.03,0.07-0.04,0.1
				l0.3-0.01c0.06,0,0.12-0.01,0.18-0.03c0.06-0.02,0.11-0.05,0.16-0.08c0.04-0.03,0.08-0.05,0.11-0.07
				c0.03-0.02,0.05-0.03,0.06-0.03c0.01,0,0.02,0,0.03,0.01c0.01,0.01,0.01,0.02,0.01,0.03c0,0.01-0.02,0.04-0.06,0.09
				c-0.04,0.05-0.1,0.11-0.16,0.17c-0.05,0.04-0.1,0.08-0.15,0.12c-0.05,0.04-0.11,0.07-0.16,0.1c-0.03,0.01-0.06,0.02-0.09,0.03
				c-0.03,0.01-0.06,0.01-0.09,0.01c-0.12,0-0.2-0.04-0.26-0.12c-0.05-0.08-0.1-0.21-0.13-0.39c0,0,0-0.01,0-0.02
				C15.2,68.26,15.2,68.25,15.2,68.24L15.2,68.24L15.2,68.24z M16.71,67.26c0,0-0.01,0.01-0.02,0.01c-0.01,0-0.01,0-0.02,0
				c-0.05,0-0.09-0.02-0.11-0.05c-0.03-0.03-0.04-0.08-0.04-0.15c0-0.08,0.02-0.15,0.07-0.21c0.05-0.05,0.11-0.08,0.18-0.08
				c0.06,0,0.1,0.01,0.12,0.04c0.03,0.03,0.04,0.07,0.04,0.13l1.1-0.01c-0.09,0.08-0.16,0.15-0.23,0.22
				c-0.07,0.07-0.13,0.14-0.19,0.2c-0.1,0.13-0.18,0.26-0.23,0.39c-0.05,0.13-0.08,0.28-0.08,0.45c0,0.1,0.02,0.18,0.05,0.22
				c0.04,0.04,0.11,0.07,0.21,0.07c0.07,0,0.14-0.01,0.2-0.04c0.06-0.02,0.11-0.05,0.16-0.07c0.04-0.03,0.08-0.05,0.11-0.07
				c0.03-0.02,0.06-0.03,0.08-0.03c0.01,0,0.01,0,0.02,0.01c0,0.01,0.01,0.02,0.01,0.03c0,0.01-0.02,0.04-0.06,0.09
				c-0.04,0.05-0.09,0.1-0.16,0.16c-0.07,0.06-0.16,0.11-0.25,0.17c-0.1,0.05-0.19,0.08-0.3,0.08c0,0-0.01,0-0.01,0
				c0,0-0.01,0-0.01,0c-0.13,0-0.22-0.04-0.29-0.12c-0.07-0.08-0.1-0.19-0.1-0.35c0-0.1,0.01-0.19,0.04-0.28
				c0.03-0.09,0.06-0.18,0.11-0.26c0.05-0.09,0.11-0.17,0.19-0.26c0.07-0.09,0.16-0.18,0.25-0.28l-0.68-0.01
				c-0.02,0.06-0.03,0.11-0.05,0.15c-0.02,0.04-0.04,0.09-0.06,0.12c-0.06,0.11-0.11,0.19-0.16,0.24c-0.05,0.05-0.09,0.08-0.1,0.08
				c-0.01,0-0.01,0-0.02,0c0,0,0-0.01,0-0.01c0-0.03,0.01-0.05,0.03-0.09c0.02-0.03,0.04-0.07,0.07-0.12
				c0.03-0.04,0.05-0.09,0.07-0.15C16.69,67.42,16.7,67.35,16.71,67.26L16.71,67.26L16.71,67.26z M20.01,68.93
				C20.01,68.93,20.01,68.93,20.01,68.93C20.01,68.93,20.01,68.93,20.01,68.93C20.01,68.93,20.01,68.92,20.01,68.93
				c0-0.01,0-0.01,0-0.01c0-0.1,0.07-0.19,0.2-0.26c0.14-0.07,0.34-0.13,0.6-0.17c0.06-0.01,0.11-0.01,0.16-0.02
				c0.05,0,0.09,0,0.14,0c0.05,0,0.09,0,0.12-0.01c0.04,0,0.07-0.01,0.09-0.02c0.03-0.01,0.05-0.02,0.08-0.04
				c0.03-0.01,0.05-0.03,0.08-0.05c0.06-0.04,0.11-0.09,0.16-0.15c0.05-0.06,0.1-0.13,0.15-0.21c0.07-0.12,0.12-0.25,0.17-0.39
				c0.04-0.14,0.08-0.28,0.11-0.42c0.01-0.02,0.01-0.04,0.02-0.07c0-0.03,0.01-0.05,0.01-0.07c0.03-0.14,0.07-0.29,0.11-0.42
				c0.04-0.14,0.09-0.26,0.15-0.38c0.04-0.08,0.09-0.15,0.14-0.22c0.05-0.06,0.11-0.12,0.16-0.17c0.09-0.08,0.17-0.14,0.26-0.19
				c0.08-0.04,0.14-0.06,0.19-0.06c0.02,0,0.03,0,0.03,0c0,0,0.01,0.01,0.01,0.02c0,0.01,0,0.02-0.01,0.03
				c0,0.01-0.01,0.01-0.02,0.02c-0.02,0.02-0.04,0.04-0.08,0.06c-0.03,0.02-0.07,0.06-0.11,0.1c-0.08,0.11-0.16,0.24-0.22,0.4
				c-0.06,0.16-0.12,0.35-0.16,0.56c-0.01,0.05-0.02,0.09-0.04,0.14c-0.01,0.05-0.02,0.09-0.03,0.14c-0.07,0.31-0.17,0.59-0.29,0.82
				c-0.12,0.23-0.35,0.42-0.7,0.56c0.51,0.02,0.95,0.03,1.31,0.04c0.37,0.01,0.66,0.01,0.88,0.01c0.52,0,0.91-0.04,1.17-0.12
				c0.26-0.08,0.4-0.25,0.4-0.51c0-0.15-0.09-0.38-0.28-0.67c-0.19-0.29-0.47-0.65-0.85-1.08c-0.4-0.46-0.78-0.81-1.16-1.08
				c-0.38-0.26-0.75-0.43-1.12-0.5c-0.07-0.01-0.14-0.02-0.2-0.03c-0.07-0.01-0.14-0.01-0.2-0.01c-0.28,0-0.48,0.07-0.63,0.2
				c-0.14,0.14-0.21,0.34-0.21,0.61c0,0.14,0.01,0.31,0.04,0.52c0.03,0.21,0.07,0.44,0.12,0.71l-0.2,0.33
				c-0.01,0.03-0.03,0.05-0.04,0.07c-0.01,0.01-0.03,0.02-0.05,0.02c-0.01,0-0.02-0.01-0.03-0.02c-0.01-0.01-0.01-0.03-0.02-0.05
				c0-0.02-0.01-0.04-0.01-0.07c0-0.03-0.01-0.06-0.02-0.09c-0.06-0.3-0.11-0.56-0.13-0.77c-0.02-0.21-0.03-0.36-0.03-0.44
				c0-0.38,0.1-0.66,0.29-0.84c0.19-0.18,0.48-0.27,0.87-0.27c0.24,0,0.49,0.03,0.76,0.1c0.27,0.07,0.54,0.17,0.82,0.31
				c0.17,0.08,0.33,0.18,0.5,0.29c0.17,0.11,0.33,0.23,0.48,0.36c0.03,0.03,0.07,0.06,0.1,0.09c0.03,0.03,0.06,0.05,0.09,0.08
				c0.46,0.41,0.81,0.8,1.04,1.18c0.23,0.37,0.34,0.64,0.34,0.81c0,0.02,0,0.04,0,0.05c0,0.02,0,0.04,0,0.05
				c-0.02,0.14-0.09,0.29-0.19,0.42c-0.11,0.14-0.25,0.26-0.44,0.37c-0.29,0.16-0.6,0.26-0.92,0.28c-0.32,0.03-0.68,0.04-1.07,0.03
				c-0.06,0-0.11,0-0.17,0c-0.06,0-0.12,0-0.18,0h-1.99c-0.08,0-0.17,0.01-0.27,0.02C20.2,68.89,20.11,68.91,20.01,68.93
				L20.01,68.93z M26.07,67.26c0,0-0.01,0.01-0.02,0.01c-0.01,0-0.01,0-0.02,0c-0.05,0-0.09-0.02-0.11-0.05
				c-0.03-0.03-0.04-0.08-0.04-0.15c0-0.08,0.02-0.15,0.07-0.21c0.05-0.05,0.11-0.08,0.18-0.08c0.06,0,0.1,0.01,0.12,0.04
				c0.03,0.03,0.04,0.07,0.04,0.13l1.1-0.01c-0.09,0.08-0.16,0.15-0.23,0.22c-0.07,0.07-0.13,0.14-0.19,0.2
				c-0.1,0.13-0.18,0.26-0.23,0.39c-0.05,0.13-0.08,0.28-0.08,0.45c0,0.1,0.02,0.18,0.05,0.22c0.04,0.04,0.11,0.07,0.21,0.07
				c0.07,0,0.14-0.01,0.2-0.04c0.06-0.02,0.11-0.05,0.16-0.07c0.04-0.03,0.08-0.05,0.11-0.07c0.03-0.02,0.06-0.03,0.08-0.03
				c0.01,0,0.01,0,0.02,0.01c0,0.01,0.01,0.02,0.01,0.03c0,0.01-0.02,0.04-0.06,0.09c-0.04,0.05-0.09,0.1-0.16,0.16
				c-0.07,0.06-0.16,0.11-0.25,0.17c-0.1,0.05-0.19,0.08-0.3,0.08c0,0-0.01,0-0.01,0c0,0-0.01,0-0.01,0c-0.13,0-0.22-0.04-0.29-0.12
				c-0.07-0.08-0.1-0.19-0.1-0.35c0-0.1,0.01-0.19,0.04-0.28c0.03-0.09,0.06-0.18,0.11-0.26c0.05-0.09,0.11-0.17,0.19-0.26
				c0.07-0.09,0.16-0.18,0.25-0.28l-0.68-0.01c-0.02,0.06-0.04,0.11-0.05,0.15c-0.02,0.04-0.04,0.09-0.06,0.12
				c-0.06,0.11-0.11,0.19-0.16,0.24c-0.05,0.05-0.08,0.08-0.1,0.08c-0.01,0-0.01,0-0.02,0c0,0,0-0.01,0-0.01
				c0-0.03,0.01-0.05,0.03-0.09c0.02-0.03,0.04-0.07,0.07-0.12c0.03-0.04,0.05-0.09,0.07-0.15C26.05,67.42,26.06,67.35,26.07,67.26
				L26.07,67.26L26.07,67.26z M28.32,67.78c-0.11-0.02-0.18-0.05-0.22-0.09c-0.04-0.04-0.06-0.11-0.06-0.21
				c0-0.16,0.06-0.3,0.19-0.4c0.13-0.11,0.28-0.16,0.47-0.16c0.05,0,0.09,0,0.14,0c0.05,0,0.09,0.01,0.14,0.01
				c0.05,0,0.09,0.01,0.14,0.01c0.05,0,0.09,0,0.14,0c0,0,0.01,0,0.02,0c0.01,0,0.01,0,0.02,0c0.06,0,0.1,0,0.13,0.01
				c0.03,0,0.05,0.02,0.05,0.04c0,0.01-0.01,0.03-0.02,0.05c-0.01,0.02-0.04,0.05-0.06,0.07c-0.03,0.03-0.06,0.06-0.09,0.08
				c-0.04,0.02-0.07,0.04-0.11,0.06c-0.01,0-0.03,0.01-0.04,0.01c-0.02,0-0.03,0.01-0.05,0.01c-0.05,0-0.1-0.01-0.14-0.03
				c-0.04-0.02-0.09-0.04-0.14-0.07c-0.05-0.02-0.09-0.04-0.14-0.06c-0.04-0.02-0.09-0.03-0.14-0.03c-0.08,0-0.15,0.02-0.2,0.07
				c-0.05,0.05-0.08,0.11-0.08,0.18c0,0.05,0.03,0.09,0.08,0.12c0.05,0.03,0.14,0.06,0.26,0.09c0.02,0,0.03,0.01,0.05,0.01
				c0.01,0,0.03,0.01,0.05,0.01c0.05,0.01,0.1,0.02,0.14,0.02c0.04,0,0.08,0.01,0.11,0.01c0.04,0,0.07,0,0.09,0.01
				c0.02,0.01,0.03,0.02,0.03,0.04c0,0.06-0.03,0.11-0.09,0.15c-0.06,0.04-0.16,0.07-0.3,0.07c-0.02,0-0.04,0-0.07-0.01
				c-0.03,0-0.06-0.01-0.11-0.02c-0.15,0.07-0.27,0.14-0.34,0.21c-0.08,0.07-0.11,0.14-0.11,0.22c0,0.08,0.03,0.13,0.09,0.15
				c0.06,0.02,0.16,0.04,0.31,0.04l0.55-0.01c0.13,0,0.24-0.01,0.31-0.04c0.08-0.03,0.14-0.06,0.19-0.09
				c0.04-0.03,0.07-0.05,0.09-0.08c0.02-0.03,0.04-0.04,0.05-0.04c0,0,0.01-0.01,0.01-0.01c0,0,0.01,0,0.01,0
				c0.01,0,0.02,0,0.02,0.01c0.01,0.01,0.01,0.02,0.01,0.03c0,0,0,0.01,0,0.02c0,0.01,0,0.01-0.01,0.02c0,0.01-0.01,0.02-0.01,0.03
				c0,0.01-0.01,0.01-0.01,0.02l-0.14,0.14c-0.05,0.06-0.1,0.11-0.13,0.14c-0.04,0.04-0.08,0.07-0.11,0.09
				c-0.06,0.03-0.11,0.06-0.18,0.06c-0.06,0.01-0.14,0.01-0.24,0.01h-0.65c-0.17,0-0.3-0.02-0.38-0.07
				c-0.08-0.05-0.12-0.14-0.12-0.26c0-0.12,0.05-0.24,0.16-0.35C27.94,67.98,28.11,67.88,28.32,67.78L28.32,67.78L28.32,67.78z
				 M31.16,68.27c-0.07,0.08-0.14,0.16-0.21,0.23c-0.07,0.07-0.13,0.12-0.19,0.16c-0.07,0.05-0.14,0.08-0.21,0.11
				c-0.07,0.02-0.15,0.04-0.23,0.04c-0.16,0-0.28-0.04-0.36-0.12c-0.08-0.08-0.12-0.21-0.12-0.37c0-0.17,0.04-0.34,0.12-0.5
				c0.08-0.16,0.21-0.31,0.37-0.46c0.16-0.14,0.32-0.24,0.49-0.31c0.16-0.07,0.34-0.1,0.53-0.1c0.16,0,0.28,0.04,0.36,0.11
				c0.08,0.07,0.13,0.18,0.13,0.31c0,0.08-0.03,0.21-0.1,0.4c-0.07,0.19-0.17,0.43-0.31,0.71l0.24-0.01c0.1,0,0.18-0.01,0.24-0.03
				c0.06-0.02,0.11-0.05,0.16-0.08c0.04-0.03,0.07-0.06,0.1-0.08c0.03-0.02,0.05-0.03,0.06-0.03c0.01,0,0.02,0,0.02,0.01
				c0.01,0.01,0.01,0.01,0.01,0.02c0,0.01-0.02,0.04-0.05,0.1c-0.03,0.05-0.08,0.1-0.14,0.16c-0.06,0.06-0.12,0.11-0.19,0.16
				c-0.07,0.05-0.14,0.08-0.2,0.09c-0.02,0-0.03,0.01-0.05,0.01c-0.01,0-0.03,0-0.05,0c-0.13,0-0.23-0.04-0.29-0.12
				C31.23,68.59,31.19,68.46,31.16,68.27L31.16,68.27L31.16,68.27z M31.27,67.04c-0.16,0-0.3,0.04-0.41,0.1
				c-0.12,0.06-0.24,0.17-0.35,0.31c-0.01,0.01-0.02,0.02-0.02,0.03c-0.01,0.01-0.01,0.02-0.02,0.03c-0.09,0.13-0.17,0.25-0.22,0.36
				c-0.05,0.11-0.08,0.22-0.08,0.31c0,0.11,0.03,0.19,0.08,0.23c0.06,0.04,0.14,0.06,0.26,0.06c0.07,0,0.14,0,0.19-0.01
				c0.06-0.01,0.11-0.03,0.17-0.06c0.03-0.01,0.06-0.03,0.09-0.05c0.03-0.02,0.06-0.05,0.09-0.08c0.06-0.06,0.12-0.14,0.17-0.23
				c0.06-0.09,0.1-0.18,0.15-0.26c0.04-0.09,0.08-0.19,0.1-0.28c0.03-0.09,0.04-0.17,0.04-0.23c0-0.08-0.02-0.14-0.05-0.17
				C31.41,67.06,31.35,67.05,31.27,67.04L31.27,67.04L31.27,67.04z M32.27,68.76c0.14-0.32,0.24-0.63,0.32-0.93
				c0.08-0.3,0.12-0.59,0.14-0.87c0-0.02,0-0.04,0-0.06c0-0.02,0-0.04,0-0.05c0-0.03,0-0.07,0-0.1c0-0.03,0-0.06-0.01-0.09
				c0.12,0.07,0.2,0.16,0.25,0.27c0.05,0.11,0.07,0.24,0.07,0.4c0,0.01,0,0.02,0,0.03c0,0.01,0,0.02,0,0.03c0,0.01,0,0.02,0,0.03
				c0,0.01,0,0.02,0,0.03c0.15-0.17,0.29-0.3,0.42-0.38c0.13-0.09,0.25-0.13,0.37-0.13c0.12,0,0.21,0.04,0.28,0.12
				c0.07,0.08,0.1,0.19,0.09,0.34c0,0.01,0,0.03,0,0.04c0,0.01,0,0.03,0,0.04c0.13-0.14,0.26-0.25,0.38-0.34
				c0.12-0.09,0.24-0.15,0.36-0.18c0.03,0,0.05-0.01,0.08-0.01c0.03,0,0.06-0.01,0.09-0.01c0.14,0,0.24,0.04,0.32,0.11
				c0.08,0.07,0.11,0.16,0.11,0.28c0,0.14-0.07,0.29-0.2,0.47c-0.13,0.18-0.32,0.4-0.55,0.66l0.45-0.01c0.09,0,0.17-0.01,0.24-0.03
				c0.07-0.02,0.12-0.05,0.16-0.08c0.05-0.03,0.08-0.05,0.11-0.07c0.02-0.02,0.04-0.03,0.05-0.03c0.01,0,0.02,0,0.02,0.01
				c0.01,0,0.01,0.01,0.02,0.01c0,0,0,0.01,0,0.01c0,0,0,0,0,0c0,0.02-0.02,0.05-0.05,0.1c-0.03,0.05-0.08,0.1-0.14,0.15
				c-0.08,0.06-0.17,0.12-0.28,0.18c-0.11,0.05-0.24,0.08-0.38,0.08h-0.56c0.23-0.34,0.41-0.62,0.54-0.85
				c0.13-0.23,0.19-0.41,0.19-0.54c0-0.08-0.02-0.15-0.06-0.19c-0.04-0.04-0.1-0.07-0.19-0.07c-0.05,0-0.1,0.02-0.17,0.05
				c-0.07,0.03-0.13,0.08-0.2,0.14c-0.08,0.07-0.16,0.15-0.23,0.25s-0.14,0.21-0.18,0.32c-0.09,0.23-0.15,0.4-0.19,0.53
				c-0.04,0.13-0.07,0.22-0.1,0.28c-0.02,0.03-0.04,0.06-0.06,0.07c-0.02,0.01-0.05,0.02-0.08,0.02h-0.22l0.3-0.98
				c0.03-0.09,0.05-0.17,0.06-0.24c0.01-0.07,0.02-0.14,0.02-0.19c0-0.09-0.01-0.15-0.04-0.19c-0.02-0.04-0.06-0.05-0.12-0.05
				c-0.06,0-0.11,0.02-0.18,0.05c-0.06,0.03-0.13,0.08-0.2,0.15c-0.07,0.07-0.14,0.16-0.2,0.27c-0.07,0.11-0.13,0.23-0.19,0.37
				c-0.07,0.18-0.13,0.32-0.17,0.43c-0.04,0.11-0.07,0.2-0.1,0.26c-0.03,0.06-0.06,0.09-0.09,0.11c-0.03,0.02-0.08,0.03-0.13,0.03
				H32.27z"/>
			<path class="st1" d="M36.52,67.36c-0.12,0.14-0.21,0.25-0.26,0.34c-0.05,0.09-0.1,0.14-0.13,0.16c0,0-0.01,0-0.02,0
				c-0.01,0-0.01,0-0.02,0c0,0-0.01,0-0.01-0.01c0-0.01-0.01-0.02-0.01-0.03c0-0.03,0.02-0.09,0.06-0.16
				c0.04-0.07,0.1-0.17,0.18-0.29c0.05-0.07,0.09-0.14,0.13-0.2c0.04-0.06,0.08-0.12,0.12-0.17c0.06-0.08,0.13-0.14,0.2-0.19
				c0.07-0.04,0.14-0.06,0.23-0.06c0.05,0,0.08,0.01,0.11,0.03c0.03,0.02,0.04,0.05,0.04,0.09c0,0.04-0.01,0.07-0.03,0.1
				c-0.02,0.02-0.05,0.04-0.08,0.06c-0.03,0.02-0.06,0.03-0.11,0.05c-0.04,0.02-0.08,0.05-0.12,0.08c0,0.04,0.02,0.08,0.04,0.12
				c0.02,0.04,0.05,0.07,0.09,0.11c0.01,0.01,0.02,0.02,0.03,0.04c0.01,0.01,0.02,0.02,0.03,0.03c0.05,0.05,0.09,0.11,0.13,0.17
				c0.04,0.06,0.06,0.14,0.06,0.23c0,0.12-0.03,0.23-0.1,0.33c-0.07,0.1-0.16,0.19-0.28,0.26c0.05,0,0.09,0,0.12,0
				c0.03,0,0.05,0,0.06,0c0.11,0,0.19-0.01,0.26-0.03c0.06-0.02,0.11-0.05,0.15-0.08c0.03-0.02,0.05-0.04,0.07-0.05
				c0.02-0.02,0.04-0.03,0.05-0.04c0.01-0.01,0.02-0.01,0.03-0.02c0.01,0,0.02,0,0.03,0c0.01,0,0.02,0,0.02,0
				c0.01,0,0.01,0.01,0.01,0.02c0,0.02-0.02,0.05-0.06,0.1c-0.04,0.05-0.09,0.1-0.16,0.16c-0.07,0.06-0.15,0.11-0.24,0.17
				c-0.09,0.05-0.18,0.08-0.27,0.1c-0.01,0-0.02,0-0.04,0c-0.01,0-0.02,0-0.04,0h-0.91l0.1-0.26c0.01-0.02,0.03-0.04,0.05-0.04
				c0.02-0.01,0.05-0.01,0.08-0.01l0.29-0.01c0.12,0,0.22-0.02,0.3-0.07c0.08-0.05,0.13-0.1,0.17-0.16
				c0.02-0.03,0.04-0.06,0.04-0.09c0.01-0.03,0.01-0.06,0.01-0.08c0-0.04-0.01-0.07-0.03-0.11c-0.02-0.03-0.04-0.06-0.07-0.09
				c-0.02-0.02-0.04-0.04-0.06-0.05c-0.02-0.02-0.04-0.04-0.06-0.06c-0.04-0.04-0.08-0.09-0.12-0.15
				C36.56,67.52,36.53,67.45,36.52,67.36L36.52,67.36L36.52,67.36z M37.91,68.58c0-0.07,0.03-0.14,0.08-0.19
				c0.05-0.05,0.11-0.08,0.19-0.08c0.06,0,0.11,0.02,0.15,0.05c0.03,0.04,0.05,0.09,0.05,0.16c0,0.08-0.02,0.14-0.07,0.19
				c-0.05,0.05-0.11,0.08-0.19,0.08c-0.06,0-0.11-0.02-0.15-0.05C37.92,68.71,37.91,68.66,37.91,68.58L37.91,68.58L37.91,68.58z
				 M39.21,68.58c0-0.07,0.03-0.14,0.08-0.19c0.05-0.05,0.11-0.08,0.19-0.08c0.06,0,0.11,0.02,0.15,0.05
				c0.03,0.04,0.05,0.09,0.05,0.16c0,0.08-0.02,0.14-0.07,0.19c-0.05,0.05-0.11,0.08-0.19,0.08c-0.06,0-0.11-0.02-0.15-0.05
				C39.23,68.71,39.21,68.66,39.21,68.58L39.21,68.58L39.21,68.58z M40.51,68.58c0-0.07,0.03-0.14,0.08-0.19
				c0.05-0.05,0.11-0.08,0.19-0.08c0.06,0,0.11,0.02,0.15,0.05c0.03,0.04,0.05,0.09,0.05,0.16c0,0.08-0.02,0.14-0.07,0.19
				c-0.05,0.05-0.11,0.08-0.19,0.08c-0.06,0-0.11-0.02-0.15-0.05C40.53,68.71,40.51,68.66,40.51,68.58L40.51,68.58L40.51,68.58z
				 M46.6,67.04c-0.26,0.63-0.58,1.09-0.96,1.37c-0.38,0.28-0.87,0.42-1.46,0.42c-0.4,0-0.71-0.06-0.92-0.18
				c-0.21-0.12-0.32-0.28-0.32-0.48c0-0.05,0.01-0.09,0.02-0.14c0.01-0.05,0.03-0.09,0.05-0.14c0.13-0.28,0.45-0.53,0.96-0.76
				c0.51-0.23,1.16-0.35,1.96-0.35c0.1,0,0.2,0,0.31,0.01c0.11,0.01,0.23,0.01,0.36,0.02c0.02-0.05,0.04-0.09,0.05-0.13
				c0.02-0.04,0.04-0.08,0.05-0.13c0.31-0.72,0.65-1.23,1.01-1.54c0.37-0.31,0.87-0.47,1.52-0.47c0.03,0,0.04,0,0.06,0.01
				c0.01,0.01,0.02,0.02,0.02,0.03c0,0.01,0,0.02-0.01,0.02c0,0.01-0.01,0.01-0.02,0.02c-0.02,0.02-0.06,0.04-0.11,0.07
				c-0.05,0.03-0.12,0.11-0.19,0.23c-0.11,0.17-0.21,0.43-0.3,0.78c-0.1,0.35-0.19,0.79-0.29,1.3c0.17,0.03,0.32,0.04,0.44,0.05
				c0.12,0.01,0.22,0.02,0.28,0.02c0.01,0,0.02,0,0.04,0c0.01,0,0.02,0,0.02-0.01c0.01,0,0.01,0,0.02,0c0,0,0.01,0,0.01,0
				c0.02,0,0.04,0,0.05,0.01c0.01,0,0.02,0.01,0.02,0.03c0,0.05-0.06,0.09-0.17,0.13c-0.11,0.03-0.28,0.05-0.5,0.05
				c-0.03,0-0.07,0-0.11,0c-0.04,0-0.09,0-0.15-0.01c-0.21,0.75-0.41,1.3-0.59,1.65c-0.18,0.34-0.33,0.48-0.45,0.42
				c0.15-0.29,0.27-0.61,0.38-0.96c0.1-0.35,0.19-0.74,0.27-1.16c-0.27-0.04-0.51-0.07-0.74-0.11
				C46.99,67.09,46.79,67.06,46.6,67.04L46.6,67.04L46.6,67.04z M46.49,67.03c-0.14-0.01-0.29-0.02-0.43-0.03
				c-0.14-0.01-0.28-0.01-0.41-0.01c-0.63,0-1.16,0.08-1.58,0.25c-0.42,0.16-0.7,0.34-0.85,0.54c-0.03,0.05-0.06,0.1-0.08,0.15
				c-0.02,0.05-0.03,0.1-0.03,0.15c0,0.14,0.09,0.26,0.26,0.33c0.17,0.08,0.43,0.11,0.77,0.11c0.6,0,1.09-0.12,1.46-0.35
				C45.96,67.94,46.26,67.56,46.49,67.03L46.49,67.03L46.49,67.03z M46.72,66.81c0.23,0.03,0.45,0.05,0.67,0.07
				c0.21,0.02,0.42,0.05,0.63,0.08c0.11-0.56,0.25-1.03,0.43-1.41c0.18-0.38,0.39-0.69,0.63-0.91c-0.5,0.03-0.94,0.23-1.32,0.59
				C47.36,65.59,47.02,66.12,46.72,66.81L46.72,66.81L46.72,66.81z M49.44,67.26L49.44,67.26c0,0.09-0.02,0.16-0.04,0.22
				c-0.02,0.06-0.04,0.11-0.07,0.15c-0.03,0.05-0.05,0.09-0.07,0.12c-0.02,0.03-0.03,0.06-0.03,0.09c0,0,0,0.01,0,0.01
				c0,0,0.01,0,0.02,0c0.02,0,0.05-0.03,0.1-0.08c0.05-0.05,0.1-0.13,0.16-0.24c0.02-0.04,0.04-0.08,0.06-0.12
				c0.02-0.04,0.04-0.09,0.05-0.15l0.68,0.01c-0.09,0.1-0.18,0.19-0.25,0.28c-0.07,0.09-0.14,0.18-0.19,0.26
				c-0.05,0.08-0.09,0.17-0.11,0.26c-0.03,0.09-0.04,0.18-0.04,0.28c0,0.16,0.03,0.27,0.1,0.35c0.07,0.08,0.16,0.12,0.29,0.12
				c0,0,0.01,0,0.01,0c0,0,0.01,0,0.01,0c0.1,0,0.2-0.03,0.3-0.08c0.1-0.05,0.18-0.11,0.25-0.17c0.06-0.06,0.12-0.11,0.16-0.16
				c0.04-0.05,0.06-0.08,0.06-0.09c0-0.01,0-0.02-0.01-0.03c0-0.01-0.01-0.01-0.02-0.01c-0.02,0-0.05,0.01-0.08,0.03
				c-0.03,0.02-0.07,0.05-0.11,0.07c-0.05,0.03-0.1,0.05-0.16,0.07c-0.06,0.02-0.13,0.04-0.2,0.04c-0.11,0-0.18-0.02-0.21-0.07
				c-0.04-0.04-0.05-0.12-0.05-0.22c0-0.17,0.03-0.31,0.08-0.45c0.05-0.13,0.13-0.26,0.23-0.39c0.06-0.07,0.12-0.14,0.19-0.2
				c0.07-0.07,0.14-0.14,0.23-0.22l-1.1,0.01c0-0.06-0.01-0.1-0.04-0.13c-0.03-0.03-0.07-0.04-0.12-0.04
				c-0.07,0-0.13,0.03-0.18,0.08c-0.05,0.05-0.07,0.12-0.07,0.21c0,0.06,0.01,0.11,0.04,0.15c0.03,0.03,0.06,0.05,0.11,0.05
				c0.01,0,0.02,0,0.02,0C49.43,67.27,49.44,67.26,49.44,67.26L49.44,67.26z M51.7,67.78c-0.11-0.02-0.18-0.05-0.22-0.09
				c-0.04-0.04-0.06-0.11-0.06-0.21c0-0.16,0.06-0.3,0.19-0.4c0.13-0.11,0.28-0.16,0.47-0.16c0.05,0,0.09,0,0.14,0
				c0.05,0,0.09,0.01,0.14,0.01c0.05,0,0.09,0.01,0.14,0.01c0.05,0,0.09,0,0.14,0c0,0,0.01,0,0.02,0c0.01,0,0.01,0,0.02,0
				c0.06,0,0.1,0,0.13,0.01c0.03,0,0.05,0.02,0.05,0.04c0,0.01-0.01,0.03-0.02,0.05c-0.01,0.02-0.04,0.05-0.06,0.07
				c-0.03,0.03-0.06,0.06-0.09,0.08c-0.04,0.02-0.07,0.04-0.11,0.06c-0.01,0-0.03,0.01-0.04,0.01c-0.02,0-0.03,0.01-0.05,0.01
				c-0.05,0-0.1-0.01-0.14-0.03c-0.04-0.02-0.09-0.04-0.14-0.07c-0.05-0.02-0.09-0.04-0.14-0.06c-0.04-0.02-0.09-0.03-0.14-0.03
				c-0.08,0-0.15,0.02-0.2,0.07c-0.05,0.05-0.08,0.11-0.08,0.18c0,0.05,0.03,0.09,0.08,0.12c0.05,0.03,0.14,0.06,0.26,0.09
				c0.02,0,0.03,0.01,0.05,0.01c0.01,0,0.03,0.01,0.05,0.01c0.05,0.01,0.1,0.02,0.14,0.02c0.04,0,0.08,0.01,0.11,0.01
				c0.04,0,0.07,0,0.09,0.01c0.02,0.01,0.03,0.02,0.03,0.04c0,0.06-0.03,0.11-0.09,0.15c-0.06,0.04-0.16,0.07-0.3,0.07
				c-0.02,0-0.04,0-0.07-0.01c-0.03,0-0.06-0.01-0.11-0.02c-0.15,0.07-0.27,0.14-0.34,0.21c-0.08,0.07-0.11,0.14-0.11,0.22
				c0,0.08,0.03,0.13,0.09,0.15c0.06,0.02,0.16,0.04,0.31,0.04l0.56-0.01c0.13,0,0.24-0.01,0.31-0.04c0.08-0.03,0.14-0.06,0.19-0.09
				c0.04-0.03,0.07-0.05,0.09-0.08c0.02-0.03,0.04-0.04,0.05-0.04c0,0,0.01-0.01,0.01-0.01c0,0,0.01,0,0.01,0
				c0.01,0,0.02,0,0.02,0.01c0.01,0.01,0.01,0.02,0.01,0.03c0,0,0,0.01,0,0.02c0,0.01,0,0.01-0.01,0.02c0,0.01-0.01,0.02-0.01,0.03
				c0,0.01-0.01,0.01-0.01,0.02l-0.14,0.14c-0.05,0.06-0.1,0.11-0.13,0.14c-0.04,0.04-0.08,0.07-0.11,0.09
				c-0.06,0.03-0.11,0.06-0.18,0.06c-0.06,0.01-0.14,0.01-0.24,0.01h-0.65c-0.17,0-0.3-0.02-0.38-0.07
				c-0.08-0.05-0.12-0.14-0.12-0.26c0-0.12,0.05-0.24,0.16-0.35C51.32,67.98,51.48,67.88,51.7,67.78L51.7,67.78L51.7,67.78z
				 M54.85,67.31c0-0.06,0-0.11,0.01-0.17c0.01-0.06,0.02-0.12,0.03-0.18c0.03-0.15,0.08-0.3,0.15-0.45
				c0.07-0.15,0.15-0.29,0.26-0.43c0.08-0.11,0.14-0.19,0.19-0.24c0.05-0.05,0.08-0.08,0.1-0.08c0.01,0,0.02,0,0.03,0.01
				c0.01,0.01,0.01,0.02,0.01,0.03c0,0.03-0.02,0.07-0.07,0.14c-0.04,0.07-0.09,0.15-0.15,0.26c-0.06,0.11-0.11,0.24-0.15,0.39
				c-0.04,0.15-0.07,0.32-0.07,0.51c0,0.03,0,0.06,0,0.09c0,0.03,0,0.05,0,0.08c0.02,0.16,0.06,0.31,0.12,0.46
				c0.06,0.15,0.14,0.29,0.25,0.42c0.13,0.16,0.29,0.27,0.48,0.32c0.2,0.05,0.45,0.08,0.75,0.08c0.33,0,0.61-0.03,0.86-0.09
				c0.24-0.06,0.47-0.18,0.68-0.38c0.18-0.17,0.33-0.39,0.43-0.65c0.1-0.26,0.15-0.54,0.15-0.84c0-0.59-0.15-1.07-0.44-1.43
				c-0.29-0.36-0.65-0.55-1.08-0.55c-0.31,0-0.56,0.09-0.75,0.28c-0.19,0.19-0.28,0.41-0.28,0.68c0,0.08,0.01,0.16,0.03,0.24
				c0.02,0.08,0.04,0.16,0.06,0.25c0.02,0.09,0.04,0.18,0.06,0.27c0.02,0.09,0.03,0.18,0.03,0.27c0,0.16-0.01,0.29-0.04,0.39
				c-0.03,0.1-0.06,0.18-0.1,0.23c-0.01,0.02-0.03,0.04-0.04,0.04c-0.01,0.01-0.03,0.01-0.04,0.01c-0.02,0-0.04-0.01-0.04-0.03
				c-0.01-0.02-0.01-0.05-0.01-0.1c0-0.11-0.01-0.22-0.03-0.33c-0.02-0.11-0.04-0.22-0.07-0.33c-0.02-0.06-0.03-0.11-0.04-0.16
				c-0.01-0.05-0.02-0.11-0.03-0.16c-0.01-0.06-0.02-0.11-0.02-0.16c-0.01-0.05-0.01-0.11-0.01-0.16c0-0.41,0.15-0.74,0.44-0.99
				c0.29-0.25,0.66-0.38,1.1-0.38c0.47,0,0.86,0.15,1.18,0.46c0.32,0.31,0.48,0.72,0.48,1.23c0,0.39-0.08,0.76-0.23,1.11
				c-0.15,0.36-0.36,0.66-0.62,0.92c-0.25,0.23-0.53,0.4-0.85,0.51c-0.32,0.1-0.69,0.16-1.12,0.16c-0.51,0-0.89-0.14-1.16-0.41
				C54.99,68.18,54.85,67.8,54.85,67.31L54.85,67.31L54.85,67.31z M60.52,68.24c-0.13,0.15-0.25,0.28-0.36,0.37
				c-0.11,0.09-0.21,0.15-0.32,0.17c-0.02,0-0.03,0.01-0.05,0.01c-0.02,0-0.03,0-0.05,0c-0.14,0-0.26-0.05-0.35-0.16
				c-0.1-0.11-0.14-0.25-0.14-0.42c0-0.1,0.02-0.19,0.05-0.29c0.03-0.09,0.07-0.18,0.11-0.27c0.01-0.02,0.02-0.04,0.03-0.06
				c0.01-0.02,0.02-0.04,0.03-0.06c0.03-0.07,0.05-0.14,0.07-0.2c0.02-0.07,0.03-0.14,0.03-0.2c0-0.05-0.01-0.1-0.02-0.14
				c-0.01-0.04-0.02-0.08-0.04-0.11c-0.02-0.03-0.03-0.06-0.04-0.08c-0.01-0.02-0.02-0.04-0.02-0.05c0-0.01,0-0.02,0.01-0.02
				c0.01-0.01,0.02-0.01,0.04-0.01c0.02,0,0.04,0.01,0.06,0.04c0.03,0.02,0.05,0.05,0.08,0.09c0.04,0.06,0.07,0.12,0.11,0.2
				c0.03,0.08,0.05,0.16,0.06,0.24c0,0.01,0,0.02,0,0.02s0,0.01,0,0.02c0,0.02,0,0.04,0,0.05c0,0.02,0,0.04,0,0.05
				c-0.01,0.06-0.02,0.12-0.04,0.18c-0.02,0.06-0.04,0.12-0.06,0.19c-0.03,0.08-0.05,0.15-0.07,0.23c-0.02,0.07-0.03,0.15-0.03,0.21
				c0,0.08,0.02,0.15,0.05,0.19c0.04,0.04,0.11,0.06,0.21,0.06c0.26,0,0.48-0.13,0.67-0.4c0.19-0.27,0.28-0.64,0.28-1.12l0.26-0.01
				c0,0.07,0.01,0.13,0.01,0.18c0,0.05,0,0.1,0,0.14c0,0.2-0.02,0.38-0.06,0.54c-0.04,0.16-0.09,0.32-0.16,0.47
				c-0.01,0.03-0.03,0.06-0.04,0.1c-0.01,0.03-0.03,0.07-0.04,0.1l0.3-0.01c0.06,0,0.12-0.01,0.18-0.03
				c0.06-0.02,0.11-0.05,0.16-0.08c0.04-0.03,0.08-0.05,0.11-0.07c0.03-0.02,0.05-0.03,0.06-0.03c0.01,0,0.02,0,0.03,0.01
				c0.01,0.01,0.01,0.02,0.01,0.03c0,0.01-0.02,0.04-0.06,0.09c-0.04,0.05-0.1,0.11-0.16,0.17c-0.05,0.04-0.1,0.08-0.15,0.12
				c-0.05,0.04-0.11,0.07-0.16,0.1c-0.03,0.01-0.06,0.02-0.09,0.03c-0.03,0.01-0.06,0.01-0.09,0.01c-0.12,0-0.2-0.04-0.26-0.12
				c-0.05-0.08-0.1-0.21-0.13-0.39c0,0,0-0.01,0-0.02C60.52,68.26,60.52,68.25,60.52,68.24L60.52,68.24L60.52,68.24z M62.03,67.26
				c0,0-0.01,0.01-0.02,0.01c-0.01,0-0.01,0-0.02,0c-0.05,0-0.09-0.02-0.11-0.05c-0.03-0.03-0.04-0.08-0.04-0.15
				c0-0.08,0.02-0.15,0.07-0.21c0.05-0.05,0.11-0.08,0.18-0.08c0.06,0,0.1,0.01,0.12,0.04c0.03,0.03,0.04,0.07,0.04,0.13l1.1-0.01
				c-0.09,0.08-0.16,0.15-0.23,0.22c-0.07,0.07-0.13,0.14-0.19,0.2c-0.1,0.13-0.18,0.26-0.23,0.39c-0.05,0.13-0.08,0.28-0.08,0.45
				c0,0.1,0.02,0.18,0.05,0.22c0.04,0.04,0.11,0.07,0.21,0.07c0.07,0,0.14-0.01,0.2-0.04c0.06-0.02,0.11-0.05,0.16-0.07
				c0.04-0.03,0.08-0.05,0.11-0.07c0.03-0.02,0.06-0.03,0.08-0.03c0.01,0,0.01,0,0.02,0.01c0,0.01,0.01,0.02,0.01,0.03
				c0,0.01-0.02,0.04-0.06,0.09c-0.04,0.05-0.09,0.1-0.16,0.16c-0.07,0.06-0.16,0.11-0.25,0.17c-0.1,0.05-0.19,0.08-0.3,0.08
				c0,0-0.01,0-0.01,0s-0.01,0-0.01,0c-0.13,0-0.22-0.04-0.29-0.12c-0.07-0.08-0.1-0.19-0.1-0.35c0-0.1,0.01-0.19,0.04-0.28
				c0.03-0.09,0.06-0.18,0.11-0.26c0.05-0.09,0.11-0.17,0.19-0.26c0.07-0.09,0.16-0.18,0.25-0.28l-0.68-0.01
				c-0.02,0.06-0.04,0.11-0.05,0.15c-0.02,0.04-0.04,0.09-0.06,0.12c-0.06,0.11-0.11,0.19-0.16,0.24c-0.05,0.05-0.08,0.08-0.1,0.08
				c-0.01,0-0.01,0-0.02,0c0,0,0-0.01,0-0.01c0-0.03,0.01-0.05,0.03-0.09c0.02-0.03,0.04-0.07,0.07-0.12
				c0.03-0.04,0.05-0.09,0.07-0.15C62.01,67.42,62.03,67.35,62.03,67.26L62.03,67.26L62.03,67.26z M68.76,67.2
				c-0.28,0.57-0.62,0.98-1.03,1.23c-0.41,0.26-0.91,0.39-1.5,0.39c-0.4,0-0.71-0.06-0.92-0.17C65.11,68.54,65,68.37,65,68.17
				c0-0.04,0.01-0.09,0.02-0.13c0.01-0.05,0.03-0.09,0.06-0.13c0.13-0.26,0.45-0.49,0.94-0.7c0.5-0.21,1.15-0.31,1.96-0.31
				c0.12,0,0.25,0,0.37,0.01c0.12,0.01,0.24,0.02,0.36,0.03c0.05-0.15,0.08-0.3,0.1-0.46c0.02-0.16,0.03-0.32,0.03-0.48
				c0-0.07,0-0.13,0-0.2c0-0.06-0.01-0.13-0.01-0.2c-0.01-0.13-0.02-0.26-0.04-0.4c-0.02-0.13-0.04-0.26-0.07-0.4
				c0.06-0.05,0.13-0.08,0.19-0.11c0.07-0.03,0.14-0.05,0.21-0.05c0.01,0.03,0.01,0.05,0.02,0.08c0,0.03,0.01,0.05,0.01,0.08
				c0.01,0.05,0.01,0.1,0.02,0.15c0,0.05,0,0.1,0,0.16c0,0.34-0.02,0.66-0.07,0.97c-0.05,0.31-0.12,0.6-0.22,0.87
				c0.21,0.02,0.42,0.04,0.62,0.06c0.2,0.03,0.4,0.05,0.59,0.08c0.07-0.32,0.15-0.61,0.24-0.87c0.09-0.26,0.18-0.49,0.27-0.69
				c0.18-0.39,0.35-0.67,0.5-0.86c0.16-0.19,0.25-0.28,0.29-0.28c0.01,0,0.02,0,0.03,0.01c0.01,0.01,0.01,0.02,0.01,0.03
				c0,0.03-0.04,0.1-0.12,0.21c-0.08,0.11-0.17,0.27-0.27,0.49c-0.09,0.2-0.19,0.46-0.29,0.8c-0.1,0.34-0.21,0.74-0.33,1.21
				c0.12,0.02,0.25,0.04,0.37,0.05c0.12,0.01,0.24,0.02,0.37,0.02c0.01,0,0.02,0,0.03,0c0.01,0,0.01,0,0.02,0
				c0.02,0,0.04,0,0.05,0.01c0.01,0.01,0.02,0.02,0.02,0.03c0,0.01-0.01,0.02-0.03,0.04c-0.02,0.01-0.05,0.03-0.08,0.04
				c-0.06,0.03-0.15,0.06-0.25,0.08c-0.1,0.02-0.22,0.03-0.35,0.03c-0.02,0-0.05,0-0.09,0c-0.04,0-0.08,0-0.13-0.01
				c-0.11,0.43-0.21,0.78-0.3,1.06c-0.09,0.28-0.18,0.49-0.26,0.62c-0.04,0.07-0.08,0.13-0.13,0.16c-0.04,0.03-0.09,0.05-0.13,0.05
				c-0.01,0-0.02,0-0.03,0c-0.01,0-0.02,0-0.03-0.01c0.09-0.15,0.17-0.32,0.22-0.51c0.05-0.19,0.1-0.39,0.15-0.62
				c0.03-0.12,0.05-0.25,0.08-0.39c0.03-0.14,0.06-0.28,0.09-0.42c-0.09-0.01-0.18-0.02-0.26-0.03c-0.08-0.01-0.17-0.02-0.26-0.03
				c-0.13-0.02-0.25-0.03-0.37-0.05C69,67.24,68.88,67.22,68.76,67.2L68.76,67.2L68.76,67.2z M68.63,67.18
				c-0.16-0.02-0.32-0.03-0.49-0.04c-0.16-0.01-0.33-0.02-0.49-0.02c-0.43,0-0.8,0.03-1.12,0.09c-0.32,0.06-0.59,0.15-0.81,0.27
				c-0.05,0.03-0.09,0.05-0.13,0.08c-0.04,0.03-0.08,0.05-0.11,0.08c-0.11,0.09-0.2,0.17-0.25,0.25c-0.05,0.08-0.08,0.15-0.08,0.21
				c0,0.14,0.1,0.25,0.29,0.31c0.19,0.06,0.49,0.09,0.89,0.09c0.6,0,1.09-0.1,1.47-0.31C68.17,67.96,68.45,67.63,68.63,67.18
				L68.63,67.18L68.63,67.18z M72.06,68.83c0.18,0,0.35-0.03,0.5-0.1c0.15-0.06,0.29-0.16,0.42-0.29c0.07-0.07,0.14-0.15,0.19-0.23
				c0.06-0.08,0.1-0.16,0.13-0.24c0.03-0.07,0.05-0.14,0.07-0.21c0.01-0.07,0.02-0.13,0.02-0.2c0-0.19-0.07-0.34-0.2-0.46
				c-0.13-0.12-0.32-0.18-0.56-0.18c-0.16,0-0.31,0.02-0.45,0.07c-0.14,0.05-0.28,0.12-0.4,0.21c-0.09,0.07-0.18,0.15-0.25,0.23
				c-0.07,0.09-0.14,0.18-0.18,0.26c-0.04,0.08-0.08,0.16-0.1,0.25c-0.03,0.08-0.04,0.16-0.04,0.23c0,0.2,0.07,0.36,0.22,0.48
				C71.59,68.77,71.8,68.83,72.06,68.83L72.06,68.83z M72.82,68.49l-0.68,0.01c-0.18,0-0.32-0.03-0.41-0.1
				c-0.09-0.07-0.13-0.19-0.13-0.35c0-0.25,0.09-0.47,0.26-0.67c0.17-0.2,0.37-0.3,0.59-0.3c0.17,0,0.32,0.06,0.43,0.19
				c0.11,0.13,0.17,0.3,0.17,0.51c0,0.05,0,0.09-0.01,0.14c-0.01,0.05-0.02,0.1-0.03,0.14c-0.02,0.07-0.05,0.14-0.08,0.21
				C72.9,68.34,72.86,68.41,72.82,68.49z"/>
			<path class="st1" d="M73.58,68.76c0.14-0.32,0.24-0.63,0.32-0.93c0.08-0.3,0.12-0.59,0.14-0.87c0-0.02,0-0.04,0-0.06
				c0-0.02,0-0.04,0-0.05c0-0.03,0-0.07,0-0.1c0-0.03,0-0.06-0.01-0.09c0.12,0.07,0.2,0.16,0.25,0.27c0.05,0.11,0.07,0.24,0.07,0.4
				c0,0.01,0,0.02,0,0.03c0,0.01,0,0.02,0,0.03c0,0.01,0,0.02,0,0.03c0,0.01,0,0.02,0,0.03c0.15-0.17,0.29-0.3,0.42-0.38
				c0.13-0.09,0.25-0.13,0.37-0.13c0.12,0,0.21,0.04,0.28,0.12c0.07,0.08,0.1,0.19,0.09,0.34c0,0.01,0,0.03,0,0.04
				c0,0.01,0,0.03,0,0.04c0.13-0.14,0.26-0.25,0.38-0.34c0.12-0.09,0.24-0.15,0.36-0.18c0.03,0,0.05-0.01,0.08-0.01
				c0.03,0,0.06-0.01,0.09-0.01c0.14,0,0.24,0.04,0.32,0.11c0.08,0.07,0.11,0.16,0.11,0.28c0,0.14-0.07,0.29-0.2,0.47
				c-0.13,0.18-0.32,0.4-0.55,0.66l0.45-0.01c0.09,0,0.17-0.01,0.24-0.03c0.07-0.02,0.12-0.05,0.16-0.08
				c0.05-0.03,0.08-0.05,0.11-0.07c0.02-0.02,0.04-0.03,0.05-0.03c0.01,0,0.02,0,0.02,0.01c0.01,0,0.01,0.01,0.02,0.01
				c0,0,0,0.01,0,0.01c0,0,0,0,0,0c0,0.02-0.02,0.05-0.05,0.1c-0.03,0.05-0.08,0.1-0.14,0.15c-0.08,0.06-0.17,0.12-0.28,0.18
				c-0.11,0.05-0.24,0.08-0.38,0.08h-0.56c0.23-0.34,0.41-0.62,0.54-0.85c0.13-0.23,0.19-0.41,0.19-0.54c0-0.08-0.02-0.15-0.06-0.19
				c-0.04-0.04-0.1-0.07-0.19-0.07c-0.05,0-0.1,0.02-0.17,0.05c-0.07,0.03-0.13,0.08-0.2,0.14c-0.08,0.07-0.16,0.15-0.23,0.25
				c-0.07,0.1-0.13,0.21-0.18,0.32c-0.09,0.23-0.15,0.4-0.19,0.53c-0.04,0.13-0.07,0.22-0.1,0.28c-0.02,0.03-0.04,0.06-0.06,0.07
				c-0.02,0.01-0.05,0.02-0.08,0.02h-0.22l0.3-0.98c0.03-0.09,0.05-0.17,0.06-0.24c0.01-0.07,0.02-0.14,0.02-0.19
				c0-0.09-0.01-0.15-0.04-0.19c-0.02-0.04-0.06-0.05-0.12-0.05c-0.06,0-0.11,0.02-0.18,0.05c-0.06,0.03-0.13,0.08-0.2,0.15
				c-0.07,0.07-0.14,0.16-0.2,0.27c-0.07,0.11-0.13,0.23-0.19,0.37c-0.07,0.18-0.13,0.32-0.17,0.43c-0.04,0.11-0.07,0.2-0.1,0.26
				c-0.03,0.06-0.06,0.09-0.09,0.11c-0.03,0.02-0.08,0.03-0.13,0.03H73.58L73.58,68.76z M77.86,67.78
				c-0.11-0.02-0.18-0.05-0.22-0.09c-0.04-0.04-0.06-0.11-0.06-0.21c0-0.16,0.06-0.3,0.19-0.4c0.13-0.11,0.28-0.16,0.47-0.16
				c0.05,0,0.09,0,0.14,0c0.05,0,0.09,0.01,0.14,0.01c0.05,0,0.09,0.01,0.14,0.01c0.05,0,0.09,0,0.14,0c0,0,0.01,0,0.02,0
				c0.01,0,0.01,0,0.02,0c0.06,0,0.1,0,0.13,0.01c0.03,0,0.05,0.02,0.05,0.04c0,0.01-0.01,0.03-0.02,0.05
				c-0.01,0.02-0.04,0.05-0.06,0.07c-0.03,0.03-0.06,0.06-0.09,0.08c-0.04,0.02-0.07,0.04-0.11,0.06c-0.01,0-0.03,0.01-0.04,0.01
				c-0.02,0-0.03,0.01-0.05,0.01c-0.05,0-0.1-0.01-0.14-0.03c-0.04-0.02-0.09-0.04-0.14-0.07c-0.05-0.02-0.09-0.04-0.14-0.06
				c-0.04-0.02-0.09-0.03-0.14-0.03c-0.08,0-0.15,0.02-0.2,0.07c-0.05,0.05-0.08,0.11-0.08,0.18c0,0.05,0.03,0.09,0.08,0.12
				c0.05,0.03,0.14,0.06,0.26,0.09c0.02,0,0.03,0.01,0.05,0.01c0.01,0,0.03,0.01,0.05,0.01c0.05,0.01,0.1,0.02,0.14,0.02
				c0.04,0,0.08,0.01,0.11,0.01c0.04,0,0.07,0,0.09,0.01c0.02,0.01,0.03,0.02,0.03,0.04c0,0.06-0.03,0.11-0.09,0.15
				c-0.06,0.04-0.16,0.07-0.3,0.07c-0.02,0-0.04,0-0.07-0.01c-0.03,0-0.06-0.01-0.11-0.02c-0.15,0.07-0.27,0.14-0.34,0.21
				c-0.08,0.07-0.11,0.14-0.11,0.22c0,0.08,0.03,0.13,0.09,0.15c0.06,0.02,0.16,0.04,0.31,0.04l0.56-0.01
				c0.13,0,0.24-0.01,0.31-0.04c0.08-0.03,0.14-0.06,0.19-0.09c0.04-0.03,0.07-0.05,0.09-0.08c0.02-0.03,0.04-0.04,0.05-0.04
				c0,0,0.01-0.01,0.01-0.01c0,0,0.01,0,0.01,0c0.01,0,0.02,0,0.02,0.01c0.01,0.01,0.01,0.02,0.01,0.03c0,0,0,0.01,0,0.02
				c0,0.01,0,0.01-0.01,0.02c0,0.01-0.01,0.02-0.01,0.03c0,0.01-0.01,0.01-0.01,0.02l-0.14,0.14c-0.05,0.06-0.1,0.11-0.13,0.14
				c-0.04,0.04-0.08,0.07-0.11,0.09c-0.06,0.03-0.11,0.06-0.18,0.06c-0.06,0.01-0.14,0.01-0.24,0.01h-0.65
				c-0.17,0-0.3-0.02-0.38-0.07c-0.08-0.05-0.12-0.14-0.12-0.26c0-0.12,0.05-0.24,0.16-0.35C77.48,67.98,77.64,67.88,77.86,67.78
				L77.86,67.78L77.86,67.78z M79.91,67.36c-0.12,0.14-0.21,0.25-0.26,0.34c-0.05,0.09-0.1,0.14-0.13,0.16c0,0-0.01,0-0.02,0
				c-0.01,0-0.01,0-0.02,0c0,0-0.01,0-0.01-0.01c0-0.01-0.01-0.02-0.01-0.03c0-0.03,0.02-0.09,0.06-0.16
				c0.04-0.07,0.1-0.17,0.18-0.29c0.05-0.07,0.09-0.14,0.13-0.2c0.04-0.06,0.08-0.12,0.12-0.17c0.06-0.08,0.13-0.14,0.2-0.19
				c0.07-0.04,0.14-0.06,0.23-0.06c0.05,0,0.08,0.01,0.11,0.03c0.03,0.02,0.04,0.05,0.04,0.09c0,0.04-0.01,0.07-0.03,0.1
				c-0.02,0.02-0.05,0.04-0.08,0.06c-0.03,0.02-0.06,0.03-0.11,0.05c-0.04,0.02-0.08,0.05-0.12,0.08c0,0.04,0.02,0.08,0.04,0.12
				c0.02,0.04,0.05,0.07,0.09,0.11c0.01,0.01,0.02,0.02,0.03,0.04c0.01,0.01,0.02,0.02,0.03,0.03c0.05,0.05,0.09,0.11,0.13,0.17
				c0.04,0.06,0.06,0.14,0.06,0.23c0,0.12-0.03,0.23-0.1,0.33c-0.07,0.1-0.16,0.19-0.28,0.26c0.05,0,0.09,0,0.12,0
				c0.03,0,0.05,0,0.06,0c0.11,0,0.19-0.01,0.26-0.03c0.06-0.02,0.11-0.05,0.15-0.08c0.03-0.02,0.05-0.04,0.07-0.05
				c0.02-0.02,0.04-0.03,0.05-0.04c0.01-0.01,0.02-0.01,0.03-0.02c0.01,0,0.02,0,0.03,0c0.01,0,0.02,0,0.02,0
				c0.01,0,0.01,0.01,0.01,0.02c0,0.02-0.02,0.05-0.06,0.1c-0.04,0.05-0.09,0.1-0.16,0.16c-0.07,0.06-0.15,0.11-0.24,0.17
				c-0.09,0.05-0.18,0.08-0.27,0.1c-0.01,0-0.02,0-0.04,0c-0.01,0-0.02,0-0.03,0h-0.91l0.1-0.26c0.01-0.02,0.03-0.04,0.05-0.04
				c0.02-0.01,0.05-0.01,0.08-0.01l0.29-0.01c0.12,0,0.22-0.02,0.3-0.07c0.08-0.05,0.13-0.1,0.17-0.16
				c0.02-0.03,0.04-0.06,0.04-0.09c0.01-0.03,0.01-0.06,0.01-0.08c0-0.04-0.01-0.07-0.03-0.11c-0.02-0.03-0.04-0.06-0.07-0.09
				c-0.02-0.02-0.04-0.04-0.06-0.05c-0.02-0.02-0.04-0.04-0.06-0.06c-0.04-0.04-0.08-0.09-0.12-0.15
				C79.95,67.52,79.92,67.45,79.91,67.36L79.91,67.36L79.91,67.36z M81.29,68.58c0-0.07,0.03-0.14,0.08-0.19
				c0.05-0.05,0.11-0.08,0.19-0.08c0.06,0,0.11,0.02,0.15,0.05c0.03,0.04,0.05,0.09,0.05,0.16c0,0.08-0.02,0.14-0.07,0.19
				c-0.05,0.05-0.11,0.08-0.18,0.08c-0.06,0-0.11-0.02-0.15-0.05C81.31,68.71,81.29,68.66,81.29,68.58L81.29,68.58L81.29,68.58z
				 M82.59,68.58c0-0.07,0.03-0.14,0.08-0.19c0.05-0.05,0.11-0.08,0.19-0.08c0.06,0,0.11,0.02,0.15,0.05
				c0.03,0.04,0.05,0.09,0.05,0.16c0,0.08-0.02,0.14-0.07,0.19c-0.05,0.05-0.11,0.08-0.18,0.08c-0.06,0-0.11-0.02-0.15-0.05
				C82.61,68.71,82.59,68.66,82.59,68.58L82.59,68.58L82.59,68.58z M83.89,68.58c0-0.07,0.03-0.14,0.08-0.19
				c0.05-0.05,0.11-0.08,0.19-0.08c0.06,0,0.11,0.02,0.15,0.05c0.03,0.04,0.05,0.09,0.05,0.16c0,0.08-0.02,0.14-0.07,0.19
				c-0.05,0.05-0.11,0.08-0.18,0.08c-0.06,0-0.11-0.02-0.15-0.05C83.91,68.71,83.89,68.66,83.89,68.58L83.89,68.58z"/>
		</g>
	</g>
	<g>
		<g>
			<path d="M50.96,2.93V1.08h0.67c0.14,0,0.24,0.02,0.31,0.05c0.07,0.03,0.12,0.09,0.16,0.17c0.04,0.08,0.06,0.17,0.06,0.28
				c0,0.14-0.04,0.25-0.11,0.34c-0.07,0.09-0.18,0.14-0.32,0.17c0.06,0.03,0.1,0.07,0.13,0.1c0.06,0.07,0.11,0.15,0.16,0.24
				l0.27,0.5h-0.25l-0.2-0.39c-0.08-0.15-0.14-0.25-0.18-0.3c-0.04-0.05-0.08-0.09-0.12-0.11c-0.04-0.02-0.09-0.03-0.16-0.03h-0.23
				v0.82H50.96z M51.16,1.9h0.43c0.09,0,0.17-0.01,0.21-0.03c0.05-0.02,0.09-0.06,0.12-0.11c0.03-0.05,0.04-0.11,0.04-0.17
				c0-0.09-0.03-0.17-0.08-0.22c-0.05-0.05-0.14-0.08-0.24-0.08h-0.48V1.9z"/>
		</g>
		<path d="M51.52,3.56c-0.84,0-1.51-0.68-1.51-1.51s0.68-1.51,1.51-1.51c0.84,0,1.51,0.68,1.51,1.51S52.36,3.56,51.52,3.56z
			 M51.52,0.69c-0.75,0-1.35,0.61-1.35,1.35c0,0.75,0.61,1.35,1.35,1.35c0.75,0,1.35-0.61,1.35-1.35
			C52.87,1.3,52.27,0.69,51.52,0.69z"/>
	</g>
</g>
</svg>
