<?xml version="1.0" encoding="utf-8"?>
<!-- Generator: Adobe Illustrator 25.4.1, SVG Export Plug-In . SVG Version: 6.00 Build 0)  -->
<svg version="1.1" id="Layer_1" xmlns="http://www.w3.org/2000/svg" xmlns:xlink="http://www.w3.org/1999/xlink" x="0px" y="0px"
	 viewBox="0 0 90.8 70.5" style="enable-background:new 0 0 90.8 70.5;" xml:space="preserve">
<style type="text/css">
	.st0{fill-rule:evenodd;clip-rule:evenodd;fill:#1885C8;}
	.st1{fill-rule:evenodd;clip-rule:evenodd;stroke:#000000;stroke-width:0.216;stroke-miterlimit:22.9256;}
	.star {
		animation: rotate 2s infinite;
  		transform-origin: 10% 10%;
	}
	@keyframes rotate {
		100% {
			transform: rotate(360deg);
		}
	}
</style>
<g>
	<g>
		<path class="st0" d="M33.2,29.7l10.4,15.6c-3.2,1.2-7.4,2-10.5,2.5c2.4,0.2,7.2-0.4,11.2-1.4l1.5,2.3l1.9,0l-0.2-3.3
			c12.9-5.6,10.7-20.4-1.4-22.7L45.3,9.3l-0.7,13.3c-6.9,0.3-15.9,0.7-19.2,0.8c-3.1,0.2,14.8,1.8,19,2.1l-0.8,15.6l-7.1-11.8
			L33.2,29.7L33.2,29.7z M47.4,43.6l-1.1-17.8c3.8,0.5,5.9,3,7.2,6.6C54.6,37.5,52.2,41.1,47.4,43.6z"/>
		<path class="st0" d="M3.6,60.8l-3.6-9h1.7l2.3,6l2.2-6h0.8L3.6,60.8L3.6,60.8z M7.9,55.9c0-0.4,0.1-0.7,0.2-0.8
			C8.3,55,8.6,54.9,9,54.9l2.7,0v0.5H9.9c-0.2,0-0.4,0-0.5,0.1c-0.1,0-0.2,0.2-0.2,0.4v1.4h2.1v0.6H9.2v1.8c0,0.2,0.1,0.4,0.2,0.4
			c0.1,0,0.3,0.1,0.5,0.1l1.9,0v0.5H9c-0.4,0-0.7-0.1-0.9-0.2C8,60.3,7.9,60,7.9,59.6V55.9L7.9,55.9z M13.2,55.9
			c0-0.4,0.1-0.7,0.2-0.8s0.4-0.2,0.9-0.2l2.7,0v0.5h-1.9c-0.2,0-0.4,0-0.5,0.1c-0.1,0-0.2,0.2-0.2,0.4v1.4h2.1v0.6h-2.1v1.8
			c0,0.2,0.1,0.4,0.2,0.4c0.1,0,0.3,0.1,0.5,0.1l1.9,0v0.5h-2.8c-0.4,0-0.7-0.1-0.9-0.2c-0.2-0.1-0.2-0.4-0.2-0.8L13.2,55.9
			L13.2,55.9z M19,60.6h-0.5v-4.8c0-0.3,0.1-0.6,0.2-0.8s0.4-0.3,0.7-0.3c0.2,0,0.5,0.1,0.6,0.2s0.3,0.3,0.5,0.5c0,0,0,0,0,0.1
			c0,0,0,0,0,0.1l1.5,2.7c0,0,0,0,0,0c0,0,0,0,0,0c0,0,0,0,0.1,0s0-0.1,0.1-0.1c0,0,0,0,0,0c0,0,0,0,0,0v-3.4h0.6v5.3
			c0,0.3-0.1,0.5-0.2,0.6s-0.2,0.1-0.4,0.1c-0.1,0-0.1-0.1-0.2-0.1c-0.1-0.1-0.1-0.1-0.2-0.2l-2.6-4.6c0,0,0,0,0,0s0,0,0,0
			c0,0-0.1,0-0.1,0c0,0,0,0.1,0,0.1L19,60.6L19,60.6z M25.1,58.4H27l-0.7-2.5c0-0.1-0.1-0.2-0.1-0.2c0,0-0.1-0.1-0.1-0.1
			c0,0-0.1,0-0.1,0.1c0,0.1-0.1,0.1-0.1,0.2L25.1,58.4L25.1,58.4z M25,58.9l-0.5,1.8h-0.6l1.4-5c0.1-0.3,0.2-0.5,0.4-0.7
			s0.4-0.2,0.6-0.2c0.2,0,0.4,0.1,0.6,0.3c0.2,0.2,0.4,0.4,0.4,0.7l1.5,5h-1.3l-0.5-1.8L25,58.9L25,58.9z M34.2,60.6v-8.8h2.2
			c1.6,0,2.9,0.4,4,1.2c1.1,0.8,1.6,2.1,1.4,3.8c-0.1,1.2-0.5,2.1-1.3,2.7s-1.8,1-2.9,1L34.2,60.6L34.2,60.6z M35.8,52.5V60
			c0.1,0,0.2,0,0.2,0c0.1,0,0.2,0,0.2,0c0.1,0,0.2,0,0.3,0s0.2,0,0.3,0c0.3,0,0.6,0,0.9-0.1s0.6-0.2,0.8-0.3c0.4-0.2,0.7-0.6,0.9-1
			c0.2-0.4,0.3-0.9,0.4-1.3c0-0.2,0-0.3,0.1-0.5c0-0.2,0-0.3,0-0.5c0-0.7-0.1-1.3-0.4-1.9c-0.3-0.6-0.7-1.1-1.3-1.4
			c-0.3-0.2-0.7-0.3-1.1-0.3c-0.4,0-0.7-0.1-1.1-0.1c0,0-0.1,0-0.1,0s-0.1,0-0.1,0C35.9,52.5,35.9,52.5,35.8,52.5
			C35.9,52.5,35.9,52.5,35.8,52.5L35.8,52.5L35.8,52.5z M43.2,55.9c0-0.4,0.1-0.7,0.2-0.8s0.4-0.2,0.8-0.2l2.7,0v0.5h-1.9
			c-0.2,0-0.3,0-0.5,0.1s-0.2,0.2-0.2,0.4v1.4h2.1v0.6h-2.1v1.8c0,0.2,0.1,0.4,0.2,0.4c0.1,0,0.3,0.1,0.5,0.1l1.9,0v0.5h-2.8
			c-0.4,0-0.7-0.1-0.8-0.2c-0.2-0.1-0.2-0.4-0.2-0.8V55.9L43.2,55.9z M52.4,54.9H53l-1.4,4.6c0,0,0,0.1,0,0.1s0,0.1,0,0.1
			c-0.1,0.3-0.2,0.5-0.4,0.7c-0.2,0.2-0.4,0.3-0.7,0.3c-0.3,0-0.6-0.1-0.7-0.3c-0.2-0.2-0.3-0.5-0.4-0.7c0,0,0-0.1,0-0.1
			s0-0.1,0-0.1l-1.4-4.7h1.3l1.5,5c0,0,0,0.1,0,0.1c0,0,0.1,0,0.1,0c0,0,0.1,0,0.1,0s0-0.1,0.1-0.1L52.4,54.9L52.4,54.9z M54.1,55.9
			c0-0.4,0.1-0.7,0.2-0.8s0.4-0.2,0.8-0.2l2.7,0v0.5H56c-0.2,0-0.3,0-0.5,0.1s-0.2,0.2-0.2,0.4v1.4h2.1v0.6h-2.1v1.8
			c0,0.2,0.1,0.4,0.2,0.4c0.1,0,0.3,0.1,0.5,0.1l1.9,0v0.5h-2.8c-0.4,0-0.7-0.1-0.8-0.2c-0.2-0.1-0.2-0.4-0.2-0.8L54.1,55.9
			L54.1,55.9z M59.3,51.2h1.3v8.4c0,0.2,0.1,0.4,0.2,0.4c0.2,0,0.3,0.1,0.5,0.1c0,0,0,0,0,0c0,0,0,0,0,0c0,0,0.1,0,0.1,0
			s0.1,0,0.1,0v0.5c0,0-0.1,0-0.2,0c-0.1,0-0.1,0-0.2,0c-0.1,0-0.2,0-0.3,0c-0.1,0-0.2,0-0.3,0c-0.2,0-0.4,0-0.6,0
			c-0.2,0-0.3-0.1-0.4-0.1c-0.1-0.1-0.2-0.2-0.2-0.3c0-0.1-0.1-0.2-0.1-0.3c0,0,0-0.1,0-0.1s0-0.1,0-0.1c0,0,0,0,0,0s0,0,0,0V51.2
			L59.3,51.2z M64.9,60.8c-0.9,0-1.6-0.4-2.1-1c-0.5-0.6-0.7-1.3-0.8-2c0-0.8,0.2-1.5,0.7-2.2s1.2-1,2.2-0.9c0.9,0,1.6,0.4,2.1,1
			c0.5,0.6,0.7,1.3,0.8,2c0,0.8-0.2,1.5-0.7,2.2C66.7,60.6,65.9,60.9,64.9,60.8L64.9,60.8z M64.9,60.4c0.6,0,0.9-0.3,1.2-0.8
			s0.4-1.1,0.4-1.8c0-0.5-0.1-1-0.2-1.5c-0.2-0.5-0.4-0.8-0.7-1c-0.1-0.1-0.2-0.1-0.3-0.2c-0.1,0-0.2,0-0.3,0c-0.1,0-0.2,0-0.3,0
			s-0.2,0-0.2,0.1c-0.2,0.1-0.4,0.3-0.6,0.5c-0.1,0.2-0.2,0.5-0.3,0.7c0,0.1,0,0.2,0,0.2c0,0.1,0,0.2,0,0.2c0,0.2-0.1,0.4-0.1,0.7
			s0,0.5,0,0.8c0.1,0.5,0.2,0.9,0.4,1.3S64.5,60.4,64.9,60.4L64.9,60.4L64.9,60.4z M70.4,60.6V63h-1.3v-8.1h2c1,0,1.8,0.3,2.4,1
			c0.6,0.6,0.9,1.5,0.7,2.5c-0.1,0.6-0.4,1.2-0.8,1.6c-0.5,0.4-1,0.7-1.7,0.8c-0.2,0-0.5,0-0.7,0C70.9,60.7,70.7,60.7,70.4,60.6
			L70.4,60.6z M70.4,60.2c0.9,0.1,1.5,0,2-0.3c0.4-0.3,0.7-1,0.6-1.9c0-0.1,0-0.2,0-0.3c0-0.1,0-0.2-0.1-0.4c0-0.3-0.1-0.6-0.3-0.9
			c-0.1-0.3-0.3-0.5-0.6-0.7c-0.2-0.1-0.3-0.2-0.5-0.2c-0.2,0-0.4,0-0.6,0c-0.1,0-0.1,0-0.2,0c0,0-0.1,0-0.2,0c0,0-0.1,0-0.1,0
			s-0.1,0-0.1,0L70.4,60.2L70.4,60.2z M75.7,55.9c0-0.4,0.1-0.7,0.2-0.8s0.4-0.2,0.8-0.2l2.7,0v0.5h-1.9c-0.2,0-0.3,0-0.5,0.1
			c-0.1,0-0.2,0.2-0.2,0.4v1.4H79v0.6h-2.1v1.8c0,0.2,0.1,0.4,0.2,0.4c0.1,0,0.3,0.1,0.5,0.1l1.9,0v0.5h-2.8c-0.4,0-0.7-0.1-0.8-0.2
			c-0.2-0.1-0.2-0.4-0.2-0.8V55.9L75.7,55.9z M82.2,60.6h-1.3v-5.8h2.3c0.1,0,0.2,0,0.2,0s0.2,0,0.2,0c0.3,0,0.6,0.1,0.8,0.2
			c0.3,0.1,0.5,0.3,0.7,0.5c0.1,0.1,0.2,0.3,0.2,0.4c0.1,0.2,0.1,0.3,0.1,0.5c0,0,0,0,0,0.1c0,0,0,0,0,0.1c0,0.4-0.2,0.6-0.4,0.8
			s-0.5,0.3-0.8,0.4l1.5,2.8h-1.5l-1.4-2.9c0.3,0,0.6-0.1,0.9-0.2c0.3-0.1,0.4-0.4,0.4-0.8c0.1-0.7-0.1-1.1-0.5-1.2
			c-0.4-0.1-0.8-0.2-1.3-0.2c0,0-0.1,0-0.1,0s0,0-0.1,0V60.6L82.2,60.6z M86.8,60.5v-0.4c0,0,0.1,0,0.1,0c0,0,0.1,0,0.1,0
			c0.1,0,0.2,0,0.4,0c0.1,0,0.2,0,0.4,0c0.2,0,0.4,0,0.6,0c0.2,0,0.4-0.1,0.6-0.2c0.1-0.1,0.2-0.2,0.3-0.3c0.1-0.1,0.1-0.2,0.1-0.4
			c0,0,0,0,0,0s0,0,0,0c0-0.3-0.1-0.5-0.3-0.6s-0.4-0.3-0.6-0.4c0,0,0,0-0.1,0s-0.1,0-0.1,0c0,0-0.1,0-0.1,0c0,0-0.1,0-0.1,0
			c0,0-0.1,0-0.1-0.1s-0.1,0-0.2-0.1c-0.2-0.1-0.4-0.2-0.5-0.3c-0.2-0.1-0.3-0.3-0.4-0.4c-0.1-0.1-0.1-0.3-0.2-0.4
			c0-0.1-0.1-0.3-0.1-0.4c0-0.1,0-0.2,0-0.3s0.1-0.2,0.1-0.3c0.2-0.4,0.5-0.7,0.9-0.8c0.4-0.1,0.8-0.2,1.2-0.2c0.2,0,0.4,0,0.6,0
			s0.4,0,0.6,0.1v0.5c-0.1,0-0.1,0-0.2,0s-0.1,0-0.2,0c-0.1,0-0.2,0-0.2,0c-0.1,0-0.2,0-0.2,0c-0.2,0-0.4,0-0.6,0
			c-0.2,0-0.3,0.1-0.5,0.2c-0.1,0.1-0.2,0.2-0.2,0.3c-0.1,0.1-0.1,0.2-0.1,0.4c0,0,0,0,0,0c0,0,0,0,0,0c0,0.2,0.1,0.3,0.3,0.5
			s0.3,0.2,0.4,0.3c0,0,0.1,0,0.1,0.1s0.1,0,0.1,0.1c0,0,0,0,0,0c0,0,0,0,0.1,0c0,0,0,0,0.1,0c0,0,0,0,0.1,0c0.1,0,0.1,0.1,0.2,0.1
			s0.1,0.1,0.2,0.1c0.2,0.1,0.5,0.3,0.7,0.5s0.4,0.4,0.4,0.7c0,0,0,0.1,0,0.1s0,0.1,0,0.2c0,0.2,0,0.5-0.1,0.7S90.2,60,90,60.2
			c-0.2,0.2-0.5,0.4-0.9,0.4s-0.7,0.1-1,0.1c-0.2,0-0.5,0-0.7,0C87.2,60.6,87,60.6,86.8,60.5L86.8,60.5L86.8,60.5z"/>
		<g>
			<path class="st1" d="M10.7,67.5c-0.4,0.5-0.9,0.8-1.2,1s-0.7,0.3-1,0.3c-0.1,0-0.2-0.1-0.2-0.2s-0.1-0.3-0.1-0.5
				c0-0.1,0-0.3,0.1-0.6s0.1-0.7,0.2-1.1c0.1-0.3,0.2-0.7,0.2-0.9c0.1-0.2,0.1-0.5,0.1-0.6c0-0.1,0-0.2-0.1-0.2s-0.1,0-0.2,0
				c-0.2,0-0.4,0-0.6,0.1S7.6,64.9,7.3,65c-0.1,0.1-0.2,0.1-0.3,0.2c-0.1,0.1-0.2,0.1-0.2,0.2c-0.1,0.1-0.2,0.2-0.2,0.2
				s-0.1,0.2-0.1,0.2c0,0.1,0,0.2,0,0.3c0,0.1,0.1,0.3,0.1,0.5l0.2,0.5c0,0,0,0.1,0,0.1s0,0.1,0,0.1s0,0,0,0.1c0,0,0,0-0.1,0
				c-0.1,0-0.2,0-0.3-0.1c-0.1-0.1-0.1-0.1-0.1-0.2l-0.2-0.5c0-0.1-0.1-0.2-0.1-0.3c0-0.1,0-0.2,0-0.3c0-0.1,0.1-0.3,0.2-0.4
				c0.1-0.1,0.3-0.3,0.6-0.4C7,65.1,7,65,7,65c0,0,0.1,0,0.1-0.1c0.3-0.2,0.6-0.3,0.9-0.3c0.3-0.1,0.5-0.1,0.7-0.1
				c0.2,0,0.4,0,0.4,0.1c0.1,0.1,0.1,0.2,0.1,0.4c0,0.1,0,0.1,0,0.2c0,0.1-0.1,0.2-0.1,0.4l-0.3,1.4c-0.1,0.3-0.1,0.6-0.2,0.8
				c-0.1,0.2-0.1,0.4-0.1,0.5c0,0.1,0,0.2,0,0.2s0.1,0.1,0.1,0.1c0,0,0.1,0,0.2-0.1s0.3-0.1,0.5-0.2c0.3-0.2,0.5-0.4,0.7-0.6
				s0.4-0.4,0.5-0.7c0-0.1,0.1-0.1,0.1-0.2c0-0.1,0.1-0.1,0.1-0.2c0-0.1,0.1-0.1,0.1-0.2c0-0.1,0-0.2,0.1-0.2c0-0.1,0.1-0.3,0.1-0.4
				c0-0.2,0.1-0.3,0.2-0.4c0,0,0,0,0-0.1c0,0,0,0,0-0.1c0,0,0-0.1,0.1-0.1c0,0,0,0,0.1-0.1c0.1-0.1,0.2-0.2,0.2-0.3s0.1-0.1,0.2-0.1
				c0,0,0,0,0,0c0,0,0,0,0,0c0,0,0,0.1-0.1,0.1s-0.1,0.2-0.1,0.3c0,0.1-0.1,0.2-0.1,0.3c0,0.1-0.1,0.2-0.1,0.3
				c0,0.1-0.1,0.2-0.1,0.3c0,0.1,0,0.2-0.1,0.3l-0.3,1c0,0,0,0.1,0,0.1c0,0,0,0.1,0,0.1c-0.1,0.4-0.2,0.8-0.3,1.1s-0.3,0.7-0.6,0.9
				c-0.3,0.3-0.6,0.5-0.9,0.6c-0.3,0.1-0.8,0.1-1.2,0.1c-0.2,0-0.3,0-0.4,0s-0.1-0.1-0.1-0.1c0,0,0,0,0,0c0,0,0,0,0,0l0.3-0.3
				c0.1,0,0.2,0.1,0.3,0.1c0.1,0,0.2,0,0.3,0c0.6,0,1-0.1,1.3-0.2s0.5-0.3,0.6-0.6c0-0.1,0.1-0.3,0.1-0.4s0.1-0.3,0.1-0.4
				c0-0.2,0.1-0.3,0.1-0.5C10.6,67.8,10.6,67.7,10.7,67.5L10.7,67.5L10.7,67.5z M12.3,68.8c0.2,0,0.4,0,0.5-0.1
				c0.1-0.1,0.3-0.2,0.4-0.3c0.1-0.1,0.1-0.2,0.2-0.2c0.1-0.1,0.1-0.2,0.1-0.2c0-0.1,0.1-0.1,0.1-0.2c0-0.1,0-0.1,0-0.2
				c0-0.2-0.1-0.3-0.2-0.5s-0.3-0.2-0.6-0.2c-0.2,0-0.3,0-0.4,0.1c-0.1,0.1-0.3,0.1-0.4,0.2c-0.1,0.1-0.2,0.2-0.2,0.2
				c-0.1,0.1-0.1,0.2-0.2,0.3s-0.1,0.2-0.1,0.2c0,0.1,0,0.2,0,0.2c0,0.2,0.1,0.4,0.2,0.5C11.8,68.8,12,68.8,12.3,68.8L12.3,68.8z
				 M13,68.5c0.1-0.1,0.1-0.1,0.1-0.2s0.1-0.1,0.1-0.2c0-0.1,0-0.1,0-0.1c0-0.1,0-0.1,0-0.1c0-0.2-0.1-0.4-0.2-0.5
				c-0.1-0.1-0.3-0.2-0.4-0.2c-0.2,0-0.4,0.1-0.6,0.3c-0.2,0.2-0.3,0.4-0.3,0.7c0,0.2,0,0.3,0.1,0.3s0.2,0.1,0.4,0.1L13,68.5
				L13,68.5z M15.2,68.2c-0.1,0.2-0.2,0.3-0.4,0.4c-0.1,0.1-0.2,0.2-0.3,0.2c0,0,0,0-0.1,0s0,0-0.1,0c-0.1,0-0.3-0.1-0.4-0.2
				c-0.1-0.1-0.1-0.2-0.1-0.4c0-0.1,0-0.2,0.1-0.3c0-0.1,0.1-0.2,0.1-0.3c0,0,0,0,0-0.1c0,0,0,0,0-0.1c0-0.1,0.1-0.1,0.1-0.2
				c0-0.1,0-0.1,0-0.2c0-0.1,0-0.1,0-0.1s0-0.1,0-0.1c0,0,0-0.1,0-0.1c0,0,0,0,0-0.1s0,0,0,0c0,0,0,0,0,0c0,0,0,0,0.1,0
				c0,0,0.1,0.1,0.1,0.1c0,0.1,0.1,0.1,0.1,0.2c0,0.1,0.1,0.2,0.1,0.2c0,0,0,0,0,0s0,0,0,0c0,0,0,0,0,0.1c0,0,0,0,0,0.1
				c0,0.1,0,0.1,0,0.2c0,0.1,0,0.1-0.1,0.2c0,0.1-0.1,0.2-0.1,0.2c0,0.1,0,0.2,0,0.2c0,0.1,0,0.2,0.1,0.2c0,0,0.1,0.1,0.2,0.1
				c0.3,0,0.5-0.1,0.7-0.4c0.2-0.3,0.3-0.6,0.3-1.1l0.3,0c0,0.1,0,0.1,0,0.2s0,0.1,0,0.1c0,0.2,0,0.4-0.1,0.5s-0.1,0.3-0.2,0.5
				c0,0,0,0.1,0,0.1c0,0,0,0.1,0,0.1l0.3,0c0.1,0,0.1,0,0.2,0c0.1,0,0.1-0.1,0.2-0.1c0,0,0.1-0.1,0.1-0.1s0,0,0.1,0s0,0,0,0s0,0,0,0
				s0,0-0.1,0.1c0,0.1-0.1,0.1-0.2,0.2c0,0-0.1,0.1-0.1,0.1c-0.1,0-0.1,0.1-0.2,0.1c0,0-0.1,0-0.1,0s-0.1,0-0.1,0
				c-0.1,0-0.2,0-0.3-0.1C15.3,68.6,15.2,68.5,15.2,68.2C15.2,68.3,15.2,68.3,15.2,68.2C15.2,68.3,15.2,68.2,15.2,68.2L15.2,68.2
				L15.2,68.2z M16.7,67.3C16.7,67.3,16.7,67.3,16.7,67.3C16.7,67.3,16.7,67.3,16.7,67.3c-0.1,0-0.1,0-0.2,0c0,0,0-0.1,0-0.2
				c0-0.1,0-0.2,0.1-0.2c0-0.1,0.1-0.1,0.2-0.1c0.1,0,0.1,0,0.1,0c0,0,0,0.1,0,0.1l1.1,0c-0.1,0.1-0.2,0.2-0.2,0.2s-0.1,0.1-0.2,0.2
				c-0.1,0.1-0.2,0.3-0.2,0.4s-0.1,0.3-0.1,0.4c0,0.1,0,0.2,0,0.2c0,0,0.1,0.1,0.2,0.1c0.1,0,0.1,0,0.2,0c0.1,0,0.1-0.1,0.2-0.1
				c0,0,0.1-0.1,0.1-0.1s0.1,0,0.1,0c0,0,0,0,0,0c0,0,0,0,0,0s0,0-0.1,0.1c0,0.1-0.1,0.1-0.2,0.2c-0.1,0.1-0.2,0.1-0.2,0.2
				c-0.1,0.1-0.2,0.1-0.3,0.1h0h0c-0.1,0-0.2,0-0.3-0.1C17,68.6,17,68.5,17,68.3c0-0.1,0-0.2,0-0.3s0.1-0.2,0.1-0.3
				c0-0.1,0.1-0.2,0.2-0.3c0.1-0.1,0.2-0.2,0.2-0.3l-0.7,0c0,0.1,0,0.1,0,0.2c0,0,0,0.1-0.1,0.1c-0.1,0.1-0.1,0.2-0.2,0.2
				c0,0.1-0.1,0.1-0.1,0.1s0,0,0,0v0c0,0,0-0.1,0-0.1c0,0,0-0.1,0.1-0.1c0,0,0-0.1,0.1-0.2C16.7,67.4,16.7,67.3,16.7,67.3L16.7,67.3
				L16.7,67.3z M20,68.9L20,68.9L20,68.9C20,68.9,20,68.9,20,68.9C20,68.9,20,68.9,20,68.9c0-0.1,0.1-0.2,0.2-0.3
				c0.1-0.1,0.3-0.1,0.6-0.2c0.1,0,0.1,0,0.2,0c0,0,0.1,0,0.1,0s0.1,0,0.1,0c0,0,0.1,0,0.1,0c0,0,0,0,0.1,0c0,0,0,0,0.1-0.1
				c0.1,0,0.1-0.1,0.2-0.2c0-0.1,0.1-0.1,0.1-0.2c0.1-0.1,0.1-0.2,0.2-0.4c0-0.1,0.1-0.3,0.1-0.4c0,0,0,0,0-0.1c0,0,0-0.1,0-0.1
				c0-0.1,0.1-0.3,0.1-0.4c0-0.1,0.1-0.3,0.1-0.4c0-0.1,0.1-0.2,0.1-0.2c0-0.1,0.1-0.1,0.2-0.2c0.1-0.1,0.2-0.1,0.3-0.2
				c0.1,0,0.1-0.1,0.2-0.1c0,0,0,0,0,0s0,0,0,0c0,0,0,0,0,0c0,0,0,0,0,0c0,0,0,0-0.1,0.1c0,0-0.1,0.1-0.1,0.1
				c-0.1,0.1-0.2,0.2-0.2,0.4s-0.1,0.3-0.2,0.6c0,0.1,0,0.1,0,0.1c0,0.1,0,0.1,0,0.1c-0.1,0.3-0.2,0.6-0.3,0.8s-0.4,0.4-0.7,0.6
				c0.5,0,1,0,1.3,0c0.4,0,0.7,0,0.9,0c0.5,0,0.9,0,1.2-0.1s0.4-0.2,0.4-0.5c0-0.2-0.1-0.4-0.3-0.7s-0.5-0.7-0.9-1.1
				c-0.4-0.5-0.8-0.8-1.2-1.1c-0.4-0.3-0.8-0.4-1.1-0.5c-0.1,0-0.1,0-0.2,0c-0.1,0-0.1,0-0.2,0c-0.3,0-0.5,0.1-0.6,0.2
				c-0.1,0.1-0.2,0.3-0.2,0.6c0,0.1,0,0.3,0,0.5s0.1,0.4,0.1,0.7l-0.2,0.3c0,0,0,0.1,0,0.1c0,0,0,0,0,0c0,0,0,0,0,0c0,0,0,0,0-0.1
				c0,0,0,0,0-0.1s0-0.1,0-0.1c-0.1-0.3-0.1-0.6-0.1-0.8c0-0.2,0-0.4,0-0.4c0-0.4,0.1-0.7,0.3-0.8c0.2-0.2,0.5-0.3,0.9-0.3
				c0.2,0,0.5,0,0.8,0.1s0.5,0.2,0.8,0.3c0.2,0.1,0.3,0.2,0.5,0.3s0.3,0.2,0.5,0.4c0,0,0.1,0.1,0.1,0.1s0.1,0.1,0.1,0.1
				c0.5,0.4,0.8,0.8,1,1.2c0.2,0.4,0.3,0.6,0.3,0.8c0,0,0,0,0,0.1c0,0,0,0,0,0.1c0,0.1-0.1,0.3-0.2,0.4c-0.1,0.1-0.2,0.3-0.4,0.4
				c-0.3,0.2-0.6,0.3-0.9,0.3c-0.3,0-0.7,0-1.1,0c-0.1,0-0.1,0-0.2,0s-0.1,0-0.2,0h-2c-0.1,0-0.2,0-0.3,0
				C20.2,68.9,20.1,68.9,20,68.9L20,68.9z M26.1,67.3C26.1,67.3,26.1,67.3,26.1,67.3C26,67.3,26,67.3,26.1,67.3c-0.1,0-0.1,0-0.2,0
				c0,0,0-0.1,0-0.2c0-0.1,0-0.2,0.1-0.2c0-0.1,0.1-0.1,0.2-0.1c0.1,0,0.1,0,0.1,0c0,0,0,0.1,0,0.1l1.1,0c-0.1,0.1-0.2,0.2-0.2,0.2
				S27,67.3,27,67.4c-0.1,0.1-0.2,0.3-0.2,0.4s-0.1,0.3-0.1,0.4c0,0.1,0,0.2,0,0.2c0,0,0.1,0.1,0.2,0.1c0.1,0,0.1,0,0.2,0
				c0.1,0,0.1-0.1,0.2-0.1c0,0,0.1-0.1,0.1-0.1s0.1,0,0.1,0c0,0,0,0,0,0c0,0,0,0,0,0s0,0-0.1,0.1c0,0.1-0.1,0.1-0.2,0.2
				c-0.1,0.1-0.2,0.1-0.2,0.2c-0.1,0.1-0.2,0.1-0.3,0.1h0h0c-0.1,0-0.2,0-0.3-0.1c-0.1-0.1-0.1-0.2-0.1-0.3c0-0.1,0-0.2,0-0.3
				s0.1-0.2,0.1-0.3c0-0.1,0.1-0.2,0.2-0.3c0.1-0.1,0.2-0.2,0.2-0.3l-0.7,0c0,0.1,0,0.1,0,0.2c0,0,0,0.1-0.1,0.1
				c-0.1,0.1-0.1,0.2-0.2,0.2c0,0.1-0.1,0.1-0.1,0.1c0,0,0,0,0,0v0c0,0,0-0.1,0-0.1c0,0,0-0.1,0.1-0.1c0,0,0-0.1,0.1-0.2
				C26,67.4,26.1,67.3,26.1,67.3L26.1,67.3L26.1,67.3z M28.3,67.8c-0.1,0-0.2-0.1-0.2-0.1c0,0-0.1-0.1-0.1-0.2
				c0-0.2,0.1-0.3,0.2-0.4c0.1-0.1,0.3-0.2,0.5-0.2c0,0,0.1,0,0.1,0s0.1,0,0.1,0s0.1,0,0.1,0s0.1,0,0.1,0c0,0,0,0,0,0s0,0,0,0
				c0.1,0,0.1,0,0.1,0c0,0,0,0,0,0c0,0,0,0,0,0.1c0,0,0,0.1-0.1,0.1c0,0-0.1,0.1-0.1,0.1c0,0-0.1,0-0.1,0.1c0,0,0,0,0,0c0,0,0,0,0,0
				c0,0-0.1,0-0.1,0c0,0-0.1,0-0.1-0.1c0,0-0.1,0-0.1-0.1c0,0-0.1,0-0.1,0c-0.1,0-0.1,0-0.2,0.1c0,0.1-0.1,0.1-0.1,0.2
				c0,0.1,0,0.1,0.1,0.1c0,0,0.1,0.1,0.3,0.1c0,0,0,0,0,0c0,0,0,0,0,0c0,0,0.1,0,0.1,0c0,0,0.1,0,0.1,0c0,0,0.1,0,0.1,0s0,0,0,0
				c0,0.1,0,0.1-0.1,0.2s-0.2,0.1-0.3,0.1c0,0,0,0-0.1,0c0,0-0.1,0-0.1,0c-0.1,0.1-0.3,0.1-0.3,0.2c-0.1,0.1-0.1,0.1-0.1,0.2
				s0,0.1,0.1,0.2c0.1,0,0.2,0,0.3,0l0.5,0c0.1,0,0.2,0,0.3,0c0.1,0,0.1-0.1,0.2-0.1c0,0,0.1-0.1,0.1-0.1s0,0,0,0l0,0h0c0,0,0,0,0,0
				c0,0,0,0,0,0c0,0,0,0,0,0c0,0,0,0,0,0c0,0,0,0,0,0s0,0,0,0l-0.1,0.1c0,0.1-0.1,0.1-0.1,0.1c0,0-0.1,0.1-0.1,0.1
				c-0.1,0-0.1,0.1-0.2,0.1c-0.1,0-0.1,0-0.2,0h-0.6c-0.2,0-0.3,0-0.4-0.1s-0.1-0.1-0.1-0.3s0-0.2,0.2-0.3
				C27.9,68,28.1,67.9,28.3,67.8L28.3,67.8L28.3,67.8z M31.2,68.3c-0.1,0.1-0.1,0.2-0.2,0.2s-0.1,0.1-0.2,0.2
				c-0.1,0.1-0.1,0.1-0.2,0.1c-0.1,0-0.1,0-0.2,0c-0.2,0-0.3,0-0.4-0.1s-0.1-0.2-0.1-0.4c0-0.2,0-0.3,0.1-0.5s0.2-0.3,0.4-0.5
				c0.2-0.1,0.3-0.2,0.5-0.3C31,67,31.2,67,31.4,67c0.2,0,0.3,0,0.4,0.1s0.1,0.2,0.1,0.3c0,0.1,0,0.2-0.1,0.4s-0.2,0.4-0.3,0.7
				l0.2,0c0.1,0,0.2,0,0.2,0s0.1-0.1,0.2-0.1c0,0,0.1-0.1,0.1-0.1c0,0,0,0,0.1,0c0,0,0,0,0,0c0,0,0,0,0,0c0,0,0,0,0,0.1
				c0,0.1-0.1,0.1-0.1,0.2c-0.1,0.1-0.1,0.1-0.2,0.2s-0.1,0.1-0.2,0.1c0,0,0,0,0,0c0,0,0,0,0,0c-0.1,0-0.2,0-0.3-0.1
				C31.2,68.6,31.2,68.5,31.2,68.3L31.2,68.3L31.2,68.3z M31.3,67c-0.2,0-0.3,0-0.4,0.1c-0.1,0.1-0.2,0.2-0.4,0.3c0,0,0,0,0,0
				c0,0,0,0,0,0c-0.1,0.1-0.2,0.2-0.2,0.4s-0.1,0.2-0.1,0.3c0,0.1,0,0.2,0.1,0.2c0.1,0,0.1,0.1,0.3,0.1c0.1,0,0.1,0,0.2,0
				c0.1,0,0.1,0,0.2-0.1c0,0,0.1,0,0.1-0.1c0,0,0.1-0.1,0.1-0.1c0.1-0.1,0.1-0.1,0.2-0.2c0.1-0.1,0.1-0.2,0.1-0.3
				c0-0.1,0.1-0.2,0.1-0.3c0-0.1,0-0.2,0-0.2c0-0.1,0-0.1,0-0.2C31.4,67.1,31.4,67.1,31.3,67L31.3,67L31.3,67z M32.3,68.8
				c0.1-0.3,0.2-0.6,0.3-0.9c0.1-0.3,0.1-0.6,0.1-0.9c0,0,0,0,0-0.1s0,0,0-0.1c0,0,0-0.1,0-0.1s0-0.1,0-0.1c0.1,0.1,0.2,0.2,0.2,0.3
				c0,0.1,0.1,0.2,0.1,0.4c0,0,0,0,0,0s0,0,0,0s0,0,0,0s0,0,0,0c0.2-0.2,0.3-0.3,0.4-0.4c0.1-0.1,0.2-0.1,0.4-0.1s0.2,0,0.3,0.1
				s0.1,0.2,0.1,0.3c0,0,0,0,0,0s0,0,0,0c0.1-0.1,0.3-0.2,0.4-0.3c0.1-0.1,0.2-0.2,0.4-0.2c0,0,0,0,0.1,0c0,0,0.1,0,0.1,0
				c0.1,0,0.2,0,0.3,0.1c0.1,0.1,0.1,0.2,0.1,0.3c0,0.1-0.1,0.3-0.2,0.5s-0.3,0.4-0.5,0.7l0.5,0c0.1,0,0.2,0,0.2,0
				c0.1,0,0.1-0.1,0.2-0.1c0,0,0.1-0.1,0.1-0.1c0,0,0,0,0,0s0,0,0,0c0,0,0,0,0,0v0l0,0c0,0,0,0.1,0,0.1c0,0.1-0.1,0.1-0.1,0.2
				c-0.1,0.1-0.2,0.1-0.3,0.2c-0.1,0.1-0.2,0.1-0.4,0.1h-0.6c0.2-0.3,0.4-0.6,0.5-0.8c0.1-0.2,0.2-0.4,0.2-0.5c0-0.1,0-0.2-0.1-0.2
				s-0.1-0.1-0.2-0.1c0,0-0.1,0-0.2,0.1c-0.1,0-0.1,0.1-0.2,0.1c-0.1,0.1-0.2,0.2-0.2,0.2s-0.1,0.2-0.2,0.3
				c-0.1,0.2-0.2,0.4-0.2,0.5c0,0.1-0.1,0.2-0.1,0.3c0,0,0,0.1-0.1,0.1s0,0-0.1,0h-0.2l0.3-1c0-0.1,0-0.2,0.1-0.2c0-0.1,0-0.1,0-0.2
				c0-0.1,0-0.2,0-0.2c0,0-0.1-0.1-0.1-0.1c-0.1,0-0.1,0-0.2,0.1c-0.1,0-0.1,0.1-0.2,0.2s-0.1,0.2-0.2,0.3c-0.1,0.1-0.1,0.2-0.2,0.4
				c-0.1,0.2-0.1,0.3-0.2,0.4c0,0.1-0.1,0.2-0.1,0.3c0,0.1-0.1,0.1-0.1,0.1c0,0-0.1,0-0.1,0L32.3,68.8L32.3,68.8z"/>
			<path class="st1" d="M36.5,67.4c-0.1,0.1-0.2,0.2-0.3,0.3s-0.1,0.1-0.1,0.2c0,0,0,0,0,0c0,0,0,0,0,0c0,0,0,0,0,0s0,0,0,0
				c0,0,0-0.1,0.1-0.2c0-0.1,0.1-0.2,0.2-0.3c0-0.1,0.1-0.1,0.1-0.2s0.1-0.1,0.1-0.2c0.1-0.1,0.1-0.1,0.2-0.2c0.1,0,0.1-0.1,0.2-0.1
				c0,0,0.1,0,0.1,0s0,0.1,0,0.1c0,0,0,0.1,0,0.1c0,0,0,0-0.1,0.1c0,0-0.1,0-0.1,0.1c0,0-0.1,0.1-0.1,0.1c0,0,0,0.1,0,0.1
				s0,0.1,0.1,0.1c0,0,0,0,0,0c0,0,0,0,0,0c0,0.1,0.1,0.1,0.1,0.2s0.1,0.1,0.1,0.2c0,0.1,0,0.2-0.1,0.3s-0.2,0.2-0.3,0.3
				c0,0,0.1,0,0.1,0s0,0,0.1,0c0.1,0,0.2,0,0.3,0c0.1,0,0.1-0.1,0.2-0.1c0,0,0,0,0.1-0.1c0,0,0,0,0,0s0,0,0,0c0,0,0,0,0,0s0,0,0,0
				c0,0,0,0,0,0c0,0,0,0.1-0.1,0.1c0,0.1-0.1,0.1-0.2,0.2c-0.1,0.1-0.2,0.1-0.2,0.2c-0.1,0.1-0.2,0.1-0.3,0.1c0,0,0,0,0,0
				c0,0,0,0,0,0h-0.9l0.1-0.3c0,0,0,0,0,0c0,0,0,0,0.1,0l0.3,0c0.1,0,0.2,0,0.3-0.1c0.1-0.1,0.1-0.1,0.2-0.2c0,0,0-0.1,0-0.1
				c0,0,0-0.1,0-0.1c0,0,0-0.1,0-0.1c0,0,0-0.1-0.1-0.1c0,0,0,0-0.1-0.1c0,0,0,0-0.1-0.1c0,0-0.1-0.1-0.1-0.2
				C36.6,67.5,36.5,67.4,36.5,67.4L36.5,67.4L36.5,67.4z M37.9,68.6c0-0.1,0-0.1,0.1-0.2c0-0.1,0.1-0.1,0.2-0.1c0.1,0,0.1,0,0.2,0.1
				c0,0,0,0.1,0,0.2c0,0.1,0,0.1-0.1,0.2s-0.1,0.1-0.2,0.1c-0.1,0-0.1,0-0.2-0.1C37.9,68.7,37.9,68.7,37.9,68.6L37.9,68.6L37.9,68.6
				z M39.2,68.6c0-0.1,0-0.1,0.1-0.2c0-0.1,0.1-0.1,0.2-0.1c0.1,0,0.1,0,0.2,0.1c0,0,0,0.1,0,0.2c0,0.1,0,0.1-0.1,0.2
				s-0.1,0.1-0.2,0.1c-0.1,0-0.1,0-0.2-0.1S39.2,68.7,39.2,68.6L39.2,68.6L39.2,68.6z M40.5,68.6c0-0.1,0-0.1,0.1-0.2
				c0-0.1,0.1-0.1,0.2-0.1c0.1,0,0.1,0,0.2,0.1c0,0,0,0.1,0,0.2c0,0.1,0,0.1-0.1,0.2s-0.1,0.1-0.2,0.1c-0.1,0-0.1,0-0.2-0.1
				S40.5,68.7,40.5,68.6L40.5,68.6L40.5,68.6z M46.6,67c-0.3,0.6-0.6,1.1-1,1.4c-0.4,0.3-0.9,0.4-1.5,0.4c-0.4,0-0.7-0.1-0.9-0.2
				s-0.3-0.3-0.3-0.5c0-0.1,0-0.1,0-0.1c0-0.1,0-0.1,0-0.1c0.1-0.3,0.5-0.5,1-0.8s1.2-0.3,2-0.3c0.1,0,0.2,0,0.3,0s0.2,0,0.4,0
				c0-0.1,0-0.1,0-0.1c0,0,0-0.1,0-0.1c0.3-0.7,0.7-1.2,1-1.5c0.4-0.3,0.9-0.5,1.5-0.5c0,0,0,0,0.1,0c0,0,0,0,0,0s0,0,0,0
				c0,0,0,0,0,0c0,0-0.1,0-0.1,0.1s-0.1,0.1-0.2,0.2c-0.1,0.2-0.2,0.4-0.3,0.8c-0.1,0.3-0.2,0.8-0.3,1.3c0.2,0,0.3,0,0.4,0.1
				s0.2,0,0.3,0c0,0,0,0,0,0c0,0,0,0,0,0c0,0,0,0,0,0h0c0,0,0,0,0,0c0,0,0,0,0,0c0,0.1-0.1,0.1-0.2,0.1c-0.1,0-0.3,0.1-0.5,0.1
				c0,0-0.1,0-0.1,0s-0.1,0-0.2,0c-0.2,0.8-0.4,1.3-0.6,1.7c-0.2,0.3-0.3,0.5-0.5,0.4c0.2-0.3,0.3-0.6,0.4-1
				c0.1-0.3,0.2-0.7,0.3-1.2c-0.3,0-0.5-0.1-0.7-0.1C47,67.1,46.8,67.1,46.6,67L46.6,67L46.6,67z M46.5,67c-0.1,0-0.3,0-0.4,0
				s-0.3,0-0.4,0c-0.6,0-1.2,0.1-1.6,0.2c-0.4,0.2-0.7,0.3-0.8,0.5c0,0.1-0.1,0.1-0.1,0.2s0,0.1,0,0.2c0,0.1,0.1,0.3,0.3,0.3
				c0.2,0.1,0.4,0.1,0.8,0.1c0.6,0,1.1-0.1,1.5-0.3C46,67.9,46.3,67.6,46.5,67L46.5,67L46.5,67z M46.7,66.8c0.2,0,0.5,0.1,0.7,0.1
				c0.2,0,0.4,0.1,0.6,0.1c0.1-0.6,0.2-1,0.4-1.4c0.2-0.4,0.4-0.7,0.6-0.9c-0.5,0-0.9,0.2-1.3,0.6C47.4,65.6,47,66.1,46.7,66.8
				L46.7,66.8L46.7,66.8z M49.4,67.3L49.4,67.3c0,0.1,0,0.2,0,0.2s0,0.1-0.1,0.2c0,0.1,0,0.1-0.1,0.1c0,0,0,0.1,0,0.1v0c0,0,0,0,0,0
				c0,0,0,0,0.1-0.1s0.1-0.1,0.2-0.2c0,0,0-0.1,0.1-0.1s0-0.1,0-0.2l0.7,0c-0.1,0.1-0.2,0.2-0.2,0.3s-0.1,0.2-0.2,0.3
				s-0.1,0.2-0.1,0.3c0,0.1,0,0.2,0,0.3c0,0.2,0,0.3,0.1,0.3s0.2,0.1,0.3,0.1h0h0c0.1,0,0.2,0,0.3-0.1s0.2-0.1,0.2-0.2
				c0.1-0.1,0.1-0.1,0.2-0.2s0.1-0.1,0.1-0.1c0,0,0,0,0,0c0,0,0,0,0,0c0,0,0,0-0.1,0c0,0-0.1,0.1-0.1,0.1c0,0-0.1,0.1-0.2,0.1
				s-0.1,0-0.2,0c-0.1,0-0.2,0-0.2-0.1c0,0,0-0.1,0-0.2c0-0.2,0-0.3,0.1-0.4c0-0.1,0.1-0.3,0.2-0.4c0.1-0.1,0.1-0.1,0.2-0.2
				c0.1-0.1,0.1-0.1,0.2-0.2l-1.1,0c0-0.1,0-0.1,0-0.1c0,0-0.1,0-0.1,0c-0.1,0-0.1,0-0.2,0.1s-0.1,0.1-0.1,0.2c0,0.1,0,0.1,0,0.2
				C49.3,67.3,49.4,67.3,49.4,67.3C49.4,67.3,49.4,67.3,49.4,67.3C49.4,67.3,49.4,67.3,49.4,67.3L49.4,67.3z M51.7,67.8
				c-0.1,0-0.2-0.1-0.2-0.1c0,0-0.1-0.1-0.1-0.2c0-0.2,0.1-0.3,0.2-0.4c0.1-0.1,0.3-0.2,0.5-0.2c0,0,0.1,0,0.1,0s0.1,0,0.1,0
				s0.1,0,0.1,0s0.1,0,0.1,0c0,0,0,0,0,0c0,0,0,0,0,0c0.1,0,0.1,0,0.1,0c0,0,0,0,0,0c0,0,0,0,0,0.1c0,0,0,0.1-0.1,0.1
				c0,0-0.1,0.1-0.1,0.1c0,0-0.1,0-0.1,0.1c0,0,0,0,0,0c0,0,0,0,0,0c0,0-0.1,0-0.1,0s-0.1,0-0.1-0.1c0,0-0.1,0-0.1-0.1
				c0,0-0.1,0-0.1,0c-0.1,0-0.2,0-0.2,0.1s-0.1,0.1-0.1,0.2c0,0.1,0,0.1,0.1,0.1c0,0,0.1,0.1,0.3,0.1c0,0,0,0,0,0c0,0,0,0,0,0
				c0,0,0.1,0,0.1,0s0.1,0,0.1,0c0,0,0.1,0,0.1,0s0,0,0,0c0,0.1,0,0.1-0.1,0.2s-0.2,0.1-0.3,0.1c0,0,0,0-0.1,0c0,0-0.1,0-0.1,0
				c-0.2,0.1-0.3,0.1-0.3,0.2c-0.1,0.1-0.1,0.1-0.1,0.2s0,0.1,0.1,0.2c0.1,0,0.2,0,0.3,0l0.6,0c0.1,0,0.2,0,0.3,0
				c0.1,0,0.1-0.1,0.2-0.1c0,0,0.1-0.1,0.1-0.1s0,0,0,0l0,0h0c0,0,0,0,0,0c0,0,0,0,0,0c0,0,0,0,0,0c0,0,0,0,0,0c0,0,0,0,0,0s0,0,0,0
				l-0.1,0.1c0,0.1-0.1,0.1-0.1,0.1c0,0-0.1,0.1-0.1,0.1c-0.1,0-0.1,0.1-0.2,0.1c-0.1,0-0.1,0-0.2,0h-0.7c-0.2,0-0.3,0-0.4-0.1
				s-0.1-0.1-0.1-0.3s0-0.2,0.2-0.3C51.3,68,51.5,67.9,51.7,67.8L51.7,67.8L51.7,67.8z M54.8,67.3c0-0.1,0-0.1,0-0.2s0-0.1,0-0.2
				c0-0.2,0.1-0.3,0.2-0.4c0.1-0.2,0.2-0.3,0.3-0.4c0.1-0.1,0.1-0.2,0.2-0.2c0-0.1,0.1-0.1,0.1-0.1c0,0,0,0,0,0s0,0,0,0
				c0,0,0,0.1-0.1,0.1c0,0.1-0.1,0.2-0.2,0.3s-0.1,0.2-0.2,0.4s-0.1,0.3-0.1,0.5c0,0,0,0.1,0,0.1s0,0.1,0,0.1c0,0.2,0.1,0.3,0.1,0.5
				c0.1,0.2,0.1,0.3,0.2,0.4c0.1,0.2,0.3,0.3,0.5,0.3c0.2,0.1,0.5,0.1,0.8,0.1c0.3,0,0.6,0,0.9-0.1c0.2-0.1,0.5-0.2,0.7-0.4
				c0.2-0.2,0.3-0.4,0.4-0.7s0.2-0.5,0.2-0.8c0-0.6-0.2-1.1-0.4-1.4c-0.3-0.4-0.7-0.6-1.1-0.6c-0.3,0-0.6,0.1-0.8,0.3
				s-0.3,0.4-0.3,0.7c0,0.1,0,0.2,0,0.2c0,0.1,0,0.2,0.1,0.2s0,0.2,0.1,0.3s0,0.2,0,0.3c0,0.2,0,0.3,0,0.4c0,0.1-0.1,0.2-0.1,0.2
				c0,0,0,0,0,0c0,0,0,0,0,0c0,0,0,0,0,0c0,0,0-0.1,0-0.1c0-0.1,0-0.2,0-0.3s0-0.2-0.1-0.3c0-0.1,0-0.1,0-0.2c0-0.1,0-0.1,0-0.2
				c0-0.1,0-0.1,0-0.2c0-0.1,0-0.1,0-0.2c0-0.4,0.2-0.7,0.4-1c0.3-0.2,0.7-0.4,1.1-0.4c0.5,0,0.9,0.2,1.2,0.5s0.5,0.7,0.5,1.2
				c0,0.4-0.1,0.8-0.2,1.1c-0.2,0.4-0.4,0.7-0.6,0.9c-0.2,0.2-0.5,0.4-0.8,0.5c-0.3,0.1-0.7,0.2-1.1,0.2c-0.5,0-0.9-0.1-1.2-0.4
				C55,68.2,54.8,67.8,54.8,67.3L54.8,67.3L54.8,67.3z M60.5,68.2c-0.1,0.2-0.2,0.3-0.4,0.4c-0.1,0.1-0.2,0.2-0.3,0.2c0,0,0,0,0,0
				s0,0,0,0c-0.1,0-0.3-0.1-0.3-0.2c-0.1-0.1-0.1-0.2-0.1-0.4c0-0.1,0-0.2,0-0.3c0-0.1,0.1-0.2,0.1-0.3c0,0,0,0,0-0.1s0,0,0-0.1
				c0-0.1,0-0.1,0.1-0.2c0-0.1,0-0.1,0-0.2c0-0.1,0-0.1,0-0.1c0,0,0-0.1,0-0.1s0-0.1,0-0.1c0,0,0,0,0-0.1s0,0,0,0c0,0,0,0,0,0
				s0,0,0.1,0c0,0,0,0.1,0.1,0.1c0,0.1,0.1,0.1,0.1,0.2c0,0.1,0,0.2,0.1,0.2c0,0,0,0,0,0s0,0,0,0c0,0,0,0,0,0.1c0,0,0,0,0,0.1
				c0,0.1,0,0.1,0,0.2s0,0.1-0.1,0.2c0,0.1,0,0.2-0.1,0.2c0,0.1,0,0.2,0,0.2c0,0.1,0,0.2,0,0.2c0,0,0.1,0.1,0.2,0.1
				c0.3,0,0.5-0.1,0.7-0.4c0.2-0.3,0.3-0.6,0.3-1.1l0.3,0c0,0.1,0,0.1,0,0.2s0,0.1,0,0.1c0,0.2,0,0.4-0.1,0.5s-0.1,0.3-0.2,0.5
				c0,0,0,0.1,0,0.1c0,0,0,0.1,0,0.1l0.3,0c0.1,0,0.1,0,0.2,0s0.1-0.1,0.2-0.1c0,0,0.1-0.1,0.1-0.1s0,0,0.1,0c0,0,0,0,0,0s0,0,0,0
				s0,0-0.1,0.1c0,0.1-0.1,0.1-0.2,0.2c0,0-0.1,0.1-0.2,0.1c0,0-0.1,0.1-0.2,0.1c0,0-0.1,0-0.1,0s-0.1,0-0.1,0c-0.1,0-0.2,0-0.3-0.1
				C60.6,68.6,60.6,68.5,60.5,68.2C60.5,68.3,60.5,68.3,60.5,68.2C60.5,68.3,60.5,68.2,60.5,68.2L60.5,68.2L60.5,68.2z M62,67.3
				C62,67.3,62,67.3,62,67.3C62,67.3,62,67.3,62,67.3c-0.1,0-0.1,0-0.2,0c0,0,0-0.1,0-0.2c0-0.1,0-0.2,0.1-0.2
				c0-0.1,0.1-0.1,0.2-0.1c0.1,0,0.1,0,0.1,0c0,0,0,0.1,0,0.1l1.1,0c-0.1,0.1-0.2,0.2-0.2,0.2s-0.1,0.1-0.2,0.2
				c-0.1,0.1-0.2,0.3-0.2,0.4s-0.1,0.3-0.1,0.4c0,0.1,0,0.2,0,0.2c0,0,0.1,0.1,0.2,0.1c0.1,0,0.1,0,0.2,0c0.1,0,0.1-0.1,0.2-0.1
				c0,0,0.1-0.1,0.1-0.1s0.1,0,0.1,0c0,0,0,0,0,0c0,0,0,0,0,0s0,0-0.1,0.1c0,0.1-0.1,0.1-0.2,0.2c-0.1,0.1-0.2,0.1-0.2,0.2
				c-0.1,0.1-0.2,0.1-0.3,0.1h0h0c-0.1,0-0.2,0-0.3-0.1s-0.1-0.2-0.1-0.3c0-0.1,0-0.2,0-0.3c0-0.1,0.1-0.2,0.1-0.3
				c0-0.1,0.1-0.2,0.2-0.3c0.1-0.1,0.2-0.2,0.2-0.3l-0.7,0c0,0.1,0,0.1,0,0.2c0,0,0,0.1-0.1,0.1c-0.1,0.1-0.1,0.2-0.2,0.2
				c0,0.1-0.1,0.1-0.1,0.1c0,0,0,0,0,0v0c0,0,0-0.1,0-0.1c0,0,0-0.1,0.1-0.1c0,0,0-0.1,0.1-0.2C62,67.4,62,67.3,62,67.3L62,67.3
				L62,67.3z M68.8,67.2c-0.3,0.6-0.6,1-1,1.2c-0.4,0.3-0.9,0.4-1.5,0.4c-0.4,0-0.7-0.1-0.9-0.2c-0.2-0.1-0.3-0.3-0.3-0.5
				c0,0,0-0.1,0-0.1c0-0.1,0-0.1,0.1-0.1c0.1-0.3,0.4-0.5,0.9-0.7c0.5-0.2,1.2-0.3,2-0.3c0.1,0,0.2,0,0.4,0s0.2,0,0.4,0
				c0.1-0.2,0.1-0.3,0.1-0.5c0-0.2,0-0.3,0-0.5c0-0.1,0-0.1,0-0.2c0-0.1,0-0.1,0-0.2c0-0.1,0-0.3,0-0.4c0-0.1,0-0.3-0.1-0.4
				c0.1-0.1,0.1-0.1,0.2-0.1c0.1,0,0.1-0.1,0.2-0.1c0,0,0,0.1,0,0.1c0,0,0,0.1,0,0.1c0,0.1,0,0.1,0,0.2c0,0.1,0,0.1,0,0.2
				c0,0.3,0,0.7-0.1,1S69,66.7,68.9,67c0.2,0,0.4,0,0.6,0.1c0.2,0,0.4,0.1,0.6,0.1c0.1-0.3,0.2-0.6,0.2-0.9s0.2-0.5,0.3-0.7
				c0.2-0.4,0.3-0.7,0.5-0.9c0.2-0.2,0.2-0.3,0.3-0.3c0,0,0,0,0,0s0,0,0,0c0,0,0,0.1-0.1,0.2s-0.2,0.3-0.3,0.5
				c-0.1,0.2-0.2,0.5-0.3,0.8c-0.1,0.3-0.2,0.7-0.3,1.2c0.1,0,0.2,0,0.4,0.1s0.2,0,0.4,0c0,0,0,0,0,0s0,0,0,0c0,0,0,0,0.1,0s0,0,0,0
				s0,0,0,0c0,0-0.1,0-0.1,0c-0.1,0-0.2,0.1-0.2,0.1c-0.1,0-0.2,0-0.3,0c0,0-0.1,0-0.1,0c0,0-0.1,0-0.1,0c-0.1,0.4-0.2,0.8-0.3,1.1
				c-0.1,0.3-0.2,0.5-0.3,0.6c0,0.1-0.1,0.1-0.1,0.2c0,0-0.1,0.1-0.1,0.1c0,0,0,0,0,0s0,0,0,0c0.1-0.2,0.2-0.3,0.2-0.5
				s0.1-0.4,0.2-0.6c0-0.1,0.1-0.2,0.1-0.4s0.1-0.3,0.1-0.4c-0.1,0-0.2,0-0.3,0s-0.2,0-0.3,0c-0.1,0-0.2,0-0.4-0.1
				C69,67.2,68.9,67.2,68.8,67.2L68.8,67.2L68.8,67.2z M68.6,67.2c-0.2,0-0.3,0-0.5,0c-0.2,0-0.3,0-0.5,0c-0.4,0-0.8,0-1.1,0.1
				s-0.6,0.2-0.8,0.3c-0.1,0-0.1,0.1-0.1,0.1s-0.1,0.1-0.1,0.1c-0.1,0.1-0.2,0.2-0.2,0.2s-0.1,0.2-0.1,0.2c0,0.1,0.1,0.2,0.3,0.3
				s0.5,0.1,0.9,0.1c0.6,0,1.1-0.1,1.5-0.3C68.2,68,68.4,67.6,68.6,67.2L68.6,67.2L68.6,67.2z M72.1,68.8c0.2,0,0.3,0,0.5-0.1
				c0.2-0.1,0.3-0.2,0.4-0.3c0.1-0.1,0.1-0.2,0.2-0.2c0.1-0.1,0.1-0.2,0.1-0.2c0-0.1,0.1-0.1,0.1-0.2c0-0.1,0-0.1,0-0.2
				c0-0.2-0.1-0.3-0.2-0.5s-0.3-0.2-0.6-0.2c-0.2,0-0.3,0-0.4,0.1s-0.3,0.1-0.4,0.2c-0.1,0.1-0.2,0.2-0.2,0.2
				c-0.1,0.1-0.1,0.2-0.2,0.3s-0.1,0.2-0.1,0.2c0,0.1,0,0.2,0,0.2c0,0.2,0.1,0.4,0.2,0.5C71.6,68.8,71.8,68.8,72.1,68.8L72.1,68.8z
				 M72.8,68.5l-0.7,0c-0.2,0-0.3,0-0.4-0.1c-0.1-0.1-0.1-0.2-0.1-0.3c0-0.2,0.1-0.5,0.3-0.7c0.2-0.2,0.4-0.3,0.6-0.3
				c0.2,0,0.3,0.1,0.4,0.2c0.1,0.1,0.2,0.3,0.2,0.5c0,0.1,0,0.1,0,0.1s0,0.1,0,0.1c0,0.1-0.1,0.1-0.1,0.2
				C72.9,68.3,72.9,68.4,72.8,68.5z"/>
			<path class="st1" d="M73.6,68.8c0.1-0.3,0.2-0.6,0.3-0.9S74,67.2,74,67c0,0,0,0,0-0.1s0,0,0-0.1c0,0,0-0.1,0-0.1s0-0.1,0-0.1
				c0.1,0.1,0.2,0.2,0.2,0.3c0.1,0.1,0.1,0.2,0.1,0.4c0,0,0,0,0,0s0,0,0,0s0,0,0,0s0,0,0,0c0.2-0.2,0.3-0.3,0.4-0.4
				c0.1-0.1,0.2-0.1,0.4-0.1s0.2,0,0.3,0.1s0.1,0.2,0.1,0.3c0,0,0,0,0,0s0,0,0,0c0.1-0.1,0.3-0.2,0.4-0.3c0.1-0.1,0.2-0.2,0.4-0.2
				c0,0,0.1,0,0.1,0s0.1,0,0.1,0c0.1,0,0.2,0,0.3,0.1s0.1,0.2,0.1,0.3c0,0.1-0.1,0.3-0.2,0.5s-0.3,0.4-0.6,0.7l0.4,0
				c0.1,0,0.2,0,0.2,0s0.1-0.1,0.2-0.1c0.1,0,0.1-0.1,0.1-0.1c0,0,0,0,0.1,0s0,0,0,0c0,0,0,0,0,0v0l0,0c0,0,0,0.1-0.1,0.1
				c0,0.1-0.1,0.1-0.1,0.2c-0.1,0.1-0.2,0.1-0.3,0.2c-0.1,0.1-0.2,0.1-0.4,0.1h-0.6c0.2-0.3,0.4-0.6,0.5-0.8
				c0.1-0.2,0.2-0.4,0.2-0.5c0-0.1,0-0.2-0.1-0.2s-0.1-0.1-0.2-0.1c-0.1,0-0.1,0-0.2,0.1c-0.1,0-0.1,0.1-0.2,0.1
				c-0.1,0.1-0.2,0.2-0.2,0.2s-0.1,0.2-0.2,0.3c-0.1,0.2-0.2,0.4-0.2,0.5s-0.1,0.2-0.1,0.3c0,0,0,0.1-0.1,0.1s-0.1,0-0.1,0h-0.2
				l0.3-1c0-0.1,0.1-0.2,0.1-0.2c0-0.1,0-0.1,0-0.2c0-0.1,0-0.2,0-0.2c0,0-0.1-0.1-0.1-0.1c-0.1,0-0.1,0-0.2,0.1
				c-0.1,0-0.1,0.1-0.2,0.2s-0.1,0.2-0.2,0.3c-0.1,0.1-0.1,0.2-0.2,0.4c-0.1,0.2-0.1,0.3-0.2,0.4S74,68.6,74,68.7
				c0,0.1-0.1,0.1-0.1,0.1c0,0-0.1,0-0.1,0L73.6,68.8L73.6,68.8z M77.9,67.8c-0.1,0-0.2-0.1-0.2-0.1c0,0-0.1-0.1-0.1-0.2
				c0-0.2,0.1-0.3,0.2-0.4c0.1-0.1,0.3-0.2,0.5-0.2c0.1,0,0.1,0,0.1,0s0.1,0,0.1,0s0.1,0,0.1,0s0.1,0,0.1,0c0,0,0,0,0,0c0,0,0,0,0,0
				c0.1,0,0.1,0,0.1,0c0,0,0.1,0,0.1,0c0,0,0,0,0,0.1c0,0,0,0.1-0.1,0.1c0,0-0.1,0.1-0.1,0.1c0,0-0.1,0-0.1,0.1c0,0,0,0,0,0
				c0,0,0,0-0.1,0c-0.1,0-0.1,0-0.1,0s-0.1,0-0.1-0.1c-0.1,0-0.1,0-0.1-0.1c0,0-0.1,0-0.1,0c-0.1,0-0.2,0-0.2,0.1
				c-0.1,0.1-0.1,0.1-0.1,0.2c0,0.1,0,0.1,0.1,0.1c0.1,0,0.1,0.1,0.3,0.1c0,0,0,0,0.1,0c0,0,0,0,0.1,0c0.1,0,0.1,0,0.1,0
				s0.1,0,0.1,0c0,0,0.1,0,0.1,0s0,0,0,0c0,0.1,0,0.1-0.1,0.2s-0.2,0.1-0.3,0.1c0,0,0,0-0.1,0c0,0-0.1,0-0.1,0
				c-0.2,0.1-0.3,0.1-0.3,0.2c-0.1,0.1-0.1,0.1-0.1,0.2s0,0.1,0.1,0.2c0.1,0,0.2,0,0.3,0l0.6,0c0.1,0,0.2,0,0.3,0
				c0.1,0,0.1-0.1,0.2-0.1c0,0,0.1-0.1,0.1-0.1s0,0,0.1,0l0,0h0c0,0,0,0,0,0c0,0,0,0,0,0c0,0,0,0,0,0c0,0,0,0,0,0c0,0,0,0,0,0
				s0,0,0,0l-0.1,0.1C79,68.5,79,68.6,79,68.6c0,0-0.1,0.1-0.1,0.1c-0.1,0-0.1,0.1-0.2,0.1c-0.1,0-0.1,0-0.2,0h-0.7
				c-0.2,0-0.3,0-0.4-0.1c-0.1-0.1-0.1-0.1-0.1-0.3s0.1-0.2,0.2-0.3C77.5,68,77.6,67.9,77.9,67.8L77.9,67.8L77.9,67.8z M79.9,67.4
				c-0.1,0.1-0.2,0.2-0.3,0.3s-0.1,0.1-0.1,0.2c0,0,0,0,0,0c0,0,0,0,0,0c0,0,0,0,0,0s0,0,0,0c0,0,0-0.1,0.1-0.2
				c0-0.1,0.1-0.2,0.2-0.3c0.1-0.1,0.1-0.1,0.1-0.2S79.9,67,80,67c0.1-0.1,0.1-0.1,0.2-0.2c0.1,0,0.1-0.1,0.2-0.1c0.1,0,0.1,0,0.1,0
				s0,0.1,0,0.1c0,0,0,0.1,0,0.1c0,0-0.1,0-0.1,0.1s-0.1,0-0.1,0.1c0,0-0.1,0.1-0.1,0.1c0,0,0,0.1,0,0.1c0,0,0.1,0.1,0.1,0.1
				c0,0,0,0,0,0c0,0,0,0,0,0c0.1,0.1,0.1,0.1,0.1,0.2s0.1,0.1,0.1,0.2c0,0.1,0,0.2-0.1,0.3s-0.2,0.2-0.3,0.3c0.1,0,0.1,0,0.1,0
				c0,0,0.1,0,0.1,0c0.1,0,0.2,0,0.3,0c0.1,0,0.1-0.1,0.2-0.1c0,0,0.1,0,0.1-0.1c0,0,0,0,0.1,0s0,0,0,0c0,0,0,0,0,0s0,0,0,0
				c0,0,0,0,0,0c0,0,0,0.1-0.1,0.1c0,0.1-0.1,0.1-0.2,0.2c-0.1,0.1-0.2,0.1-0.2,0.2c-0.1,0.1-0.2,0.1-0.3,0.1c0,0,0,0,0,0
				c0,0,0,0,0,0h-0.9l0.1-0.3c0,0,0,0,0.1,0c0,0,0.1,0,0.1,0l0.3,0c0.1,0,0.2,0,0.3-0.1s0.1-0.1,0.2-0.2c0,0,0-0.1,0-0.1
				c0,0,0-0.1,0-0.1c0,0,0-0.1,0-0.1c0,0,0-0.1-0.1-0.1c0,0,0,0-0.1-0.1c0,0,0,0-0.1-0.1c0,0-0.1-0.1-0.1-0.2
				C79.9,67.5,79.9,67.4,79.9,67.4L79.9,67.4L79.9,67.4z M81.3,68.6c0-0.1,0-0.1,0.1-0.2s0.1-0.1,0.2-0.1c0.1,0,0.1,0,0.2,0.1
				c0,0,0.1,0.1,0.1,0.2c0,0.1,0,0.1-0.1,0.2s-0.1,0.1-0.2,0.1c-0.1,0-0.1,0-0.2-0.1C81.3,68.7,81.3,68.7,81.3,68.6L81.3,68.6
				L81.3,68.6z M82.6,68.6c0-0.1,0-0.1,0.1-0.2s0.1-0.1,0.2-0.1c0.1,0,0.1,0,0.2,0.1c0,0,0.1,0.1,0.1,0.2c0,0.1,0,0.1-0.1,0.2
				s-0.1,0.1-0.2,0.1c-0.1,0-0.1,0-0.2-0.1C82.6,68.7,82.6,68.7,82.6,68.6L82.6,68.6L82.6,68.6z M83.9,68.6c0-0.1,0-0.1,0.1-0.2
				s0.1-0.1,0.2-0.1c0.1,0,0.1,0,0.2,0.1c0,0,0.1,0.1,0.1,0.2c0,0.1,0,0.1-0.1,0.2s-0.1,0.1-0.2,0.1c-0.1,0-0.1,0-0.2-0.1
				C83.9,68.7,83.9,68.7,83.9,68.6L83.9,68.6z"/>
		</g>
	</g>
	<g>
		<g>
			<path d="M51,2.9V1.1h0.7c0.1,0,0.2,0,0.3,0s0.1,0.1,0.2,0.2c0,0.1,0.1,0.2,0.1,0.3c0,0.1,0,0.2-0.1,0.3s-0.2,0.1-0.3,0.2
				c0.1,0,0.1,0.1,0.1,0.1C51.9,2.3,52,2.3,52,2.4l0.3,0.5H52l-0.2-0.4c-0.1-0.2-0.1-0.2-0.2-0.3s-0.1-0.1-0.1-0.1c0,0-0.1,0-0.2,0
				h-0.2v0.8L51,2.9L51,2.9z M51.2,1.9h0.4c0.1,0,0.2,0,0.2,0c0,0,0.1-0.1,0.1-0.1c0,0,0-0.1,0-0.2c0-0.1,0-0.2-0.1-0.2
				c0,0-0.1-0.1-0.2-0.1h-0.5C51.2,1.3,51.2,1.9,51.2,1.9z"/>
		</g>
		<path d="M51.5,3.6C50.7,3.6,50,2.9,50,2s0.7-1.5,1.5-1.5C52.4,0.5,53,1.2,53,2S52.4,3.6,51.5,3.6z M51.5,0.7
			c-0.8,0-1.3,0.6-1.3,1.3c0,0.8,0.6,1.3,1.3,1.3c0.8,0,1.3-0.6,1.3-1.3S52.3,0.7,51.5,0.7z"/>
	</g>
</g>
<!-- <polyline class="st0 star" points="47.4,5.3 49,7.2 47.2,7.2 47.2,9.1 45.3,7.3 45.3,7.3 43.3,9.1 43.3,7.2 41.5,7.2 43.2,5.3 43.2,5.2 
	41.5,3.4 41.5,3.4 43.3,3.4 43.3,1.5 45.3,3.3 45.3,3.3 47.2,1.5 47.2,3.4 49,3.4 "/> -->
</svg>
